<?xml version="1.0" encoding="UTF-8"?>
<svg width="36px" height="36px" viewBox="0 0 36 36" version="1.1" xmlns="http://www.w3.org/2000/svg" xmlns:xlink="http://www.w3.org/1999/xlink">
    <!-- Generator: Sketch 50 (54983) - http://www.bohemiancoding.com/sketch -->
    <title>article_icon_share_qqzone_normal</title>
    <desc>Created with Sketch.</desc>
    <defs>
        <path d="M13.035144,20.2094643 C13.035144,20.2094643 7.79210826,15.8433929 8.00639397,15.3071429 C8.22067968,14.7714286 14.9556797,14.2973214 14.9556797,14.2973214 C14.9556797,14.2973214 17.4580011,8 18.063894,8 C18.6697868,8 21.1715725,14.2973214 21.1715725,14.2973214 C21.1715725,14.2973214 27.9344297,14.7735714 28.121394,15.3071429 C28.3072868,15.8407143 23.0931797,20.2094643 23.0931797,20.2094643 C23.0931797,20.2094643 23.1574654,20.6332143 23.2330011,20.94875 C23.2372868,20.9696429 20.7981797,21.0253571 18.7994297,20.94875 C17.7494297,20.9085714 16.4856797,20.7141071 16.4856797,20.7141071 L22.2735368,16.5875 C22.2735368,16.5875 20.1799654,16.2103571 18.063894,16.1353571 C15.746394,16.0528571 13.3737154,16.2757143 13.035144,16.3614286 C12.8219297,16.4155357 14.5335368,16.41125 16.4856797,16.5875 C17.8522868,16.7107143 19.650144,17.0396429 19.650144,17.0396429 L13.8628225,21.3478571 C13.8628225,21.3478571 16.3415725,21.4978571 18.5653225,21.4839286 C21.0671083,21.4667857 23.325144,21.1560714 23.3390725,21.2155357 C23.7746083,23.1007143 24.5787154,26.8260714 24.2792511,27.1303571 C23.872644,27.5444643 18.063894,23.8625 18.063894,23.8625 C18.063894,23.8625 12.6606797,27.1475 11.9155011,27.1475 C11.8855011,27.1475 11.8624654,27.1421429 11.8485368,27.1303571 C11.486394,26.84 13.035144,20.2094643 13.035144,20.2094643 Z" id="path-1"></path>
    </defs>
    <g id="图标" stroke="none" stroke-width="1" fill="none" fill-rule="evenodd">
        <g id="全部" transform="translate(-380.000000, -225.000000)">
            <g id="article_icon_share_qqzone_normal" transform="translate(380.000000, 225.000000)">
                <rect id="Path" fill="#FEC950" x="0" y="0" width="36" height="36" rx="18"></rect>
                <mask id="mask-2" fill="white">
                    <use xlink:href="#path-1"></use>
                </mask>
                <use id="0" fill="#FFFFFF" xlink:href="#path-1"></use>
            </g>
        </g>
    </g>
</svg>