<?xml version="1.0" encoding="utf-8"?>
<!-- Generator: Adobe Illustrator 21.0.0, SVG Export Plug-In . SVG Version: 6.00 Build 0)  -->
<svg version="1.1" id="图层_1" xmlns="http://www.w3.org/2000/svg" xmlns:xlink="http://www.w3.org/1999/xlink" x="0px" y="0px"
	 viewBox="0 0 72 25" style="enable-background:new 0 0 72 25;" xml:space="preserve">
<style type="text/css">
	.st0{fill:#FF6B6B;}
</style>
<title>article_zhuanlan_icon</title>
<desc>Created with Sketch.</desc>
<g>
	<path class="st0" d="M37.6,10.2c0.5,1.5,1.3,2.8,2.5,3.9c1-1.1,1.7-2.4,2.2-3.9H37.6z"/>
	<polygon class="st0" points="50.7,9.8 53.3,9.8 53.6,8.9 50.4,8.9 	"/>
	<path class="st0" d="M66,12.5L71.3,3c0.2-0.3,0.3-0.6,0.3-1c0-1.1-0.9-2-2-2H2C0.9,0,0,0.9,0,2v21c0,1.1,0.9,2,2,2h67.6
		c0.3,0,0.7-0.1,1-0.3c1-0.5,1.3-1.8,0.8-2.7L66,12.5z M46.9,9.8h2.7l-0.4-0.9h-1.8v-1h3.8c-0.1-0.2-0.2-0.4-0.3-0.7l1.2-0.2
		c0.1,0.2,0.2,0.5,0.3,0.9h4v1h-1.7l-0.3,0.9h2.7v1H46.9V9.8z M28.4,7.3c0.4,0.6,0.8,1.3,1.1,2.1l-1,0.5c-0.4-0.8-0.7-1.5-1.1-2.1
		L28.4,7.3z M27.1,10.1h3.4c0.4-1,0.8-2,1.1-3l1.1,0.4c-0.3,1-0.7,1.8-1,2.6h1.5v1.1h-6V10.1z M32.8,13.3v1.1h-5.3v-1.1H32.8z
		 M4.5,6C3.7,6,3,5.3,3,4.5S3.7,3,4.5,3S6,3.7,6,4.5S5.3,6,4.5,6z M21.4,11.8h-6.5c-0.2,0.6-0.3,1.1-0.4,1.3H20v1
		c-0.5,0.8-1.4,1.6-2.6,2.5c0.6,0.2,1.3,0.5,1.9,0.8l-0.6,1c-1.8-0.9-3.7-1.5-5.5-2l0.6-0.9c0.9,0.2,1.7,0.5,2.4,0.7
		c1-0.7,1.8-1.3,2.4-2h-5.8c0.3-0.7,0.5-1.5,0.8-2.4h-3.1v-1.1h3.4l0.3-1.2h-2.9V8.4h3.1l0.3-1.4l1.2,0.1c-0.1,0.7-0.2,1.1-0.2,1.3
		h5v1.1h-5.2c-0.1,0.5-0.2,0.9-0.3,1.2h6.2V11.8z M25.4,12.3v5.9h-1.1v-5.7c-0.4,1.1-0.9,2-1.4,2.9l-0.5-1.2
		c0.9-1.1,1.5-2.3,1.9-3.6h-1.6V9.4h1.7V7.2h1.1v2.2h1.3v1.1h-1.3V11c0.6,0.6,1.1,1.2,1.7,1.8l-0.7,1C26.1,13.3,25.8,12.8,25.4,12.3
		z M33.5,17.7h-6.9v-1.1h6.9V17.7z M44.9,18.3c-1.9-0.7-3.5-1.6-4.8-2.7c-1.4,1.2-3,2.1-5,2.7l-0.6-1c1.9-0.5,3.5-1.3,4.8-2.4
		c-1.3-1.3-2.2-2.9-2.8-4.7h-1.8V9.1h4.8c-0.3-0.6-0.7-1.1-1.2-1.6L39.5,7c0.4,0.6,0.8,1.3,1.2,2.1h4.5v1.1h-1.8
		c-0.6,1.8-1.4,3.3-2.6,4.6c1.2,1,2.8,1.9,4.7,2.5L44.9,18.3z M57.3,16.8h-4.7v1.4h-1.2v-1.4h-4.8v-1h4.8v-0.6h-3.3v-3.9h7.8v3.9
		h-3.3v0.6h4.7V16.8z"/>
	<rect x="49.2" y="13.7" class="st0" width="5.5" height="0.6"/>
	<rect x="49.2" y="12.2" class="st0" width="5.5" height="0.6"/>
</g>
</svg>
