<?xml version="1.0" encoding="UTF-8"?>
<svg width="36px" height="36px" viewBox="0 0 36 36" version="1.1" xmlns="http://www.w3.org/2000/svg" xmlns:xlink="http://www.w3.org/1999/xlink">
    <!-- Generator: Sketch 50 (54983) - http://www.bohemiancoding.com/sketch -->
    <title>article_icon_share_qq_normal</title>
    <desc>Created with Sketch.</desc>
    <defs>
        <path d="M9.52274721,22.8829151 C8.82674298,22.3677779 8.88915066,21.0587795 9.33922634,19.8047855 C9.79406193,18.5412715 10.9390841,17.3242997 10.9517772,17.0556245 C10.9983185,16.0560257 10.8534058,15.8904837 10.9517772,15.6276262 C11.1717907,15.0395025 11.4394032,15.2653378 11.4394032,14.9601692 C11.4394032,11.1162095 14.2958765,8 17.8192657,8 C21.3421261,8 24.1991282,11.1162095 24.1991282,14.9601692 C24.1991282,15.1077291 24.5820363,14.9601692 24.7650283,15.6276262 C24.8031076,15.765666 24.8290226,16.2982565 24.784068,17.0556245 C24.7634417,17.4200285 25.7545602,17.8627079 26.2675724,19.8047855 C26.7811135,21.747392 26.2675724,22.6628976 26.0110663,22.8829151 C25.6932103,23.1558214 25.3261685,22.6829953 25.0299965,22.2106981 C24.7523352,21.7674898 24.5365528,21.3253392 24.4815494,21.4935257 C24.2017726,22.3413335 24.0700818,22.9077728 23.2455601,23.8306828 C23.2016632,23.8798694 24.1991282,24.2400423 24.4815494,25.0095747 C24.7518064,25.7468449 25.2785694,26.915159 21.8339831,27.2816786 C20.7503109,27.3975051 19.8274178,27.0796433 19.1827148,26.7612526 C18.624219,26.4862307 18.2735724,26.2112088 18.2064049,26.2170266 C17.9366768,26.2408265 18.0572611,26.2170266 17.7669068,26.2170266 C17.5294403,26.2170266 17.5141028,26.2344799 17.290916,26.2170266 C17.2290372,26.2127954 16.5573614,27.2816786 13.553331,27.2816786 C11.2246785,27.2816786 10.6222858,25.8156004 11.0898145,25.0095747 C11.5589298,24.2040779 12.3400835,23.9692515 12.2295479,23.8412606 C11.6874473,23.2129413 11.3130013,22.5407244 11.0898145,21.9335607 C11.0348111,21.7822987 10.9882698,21.6347388 10.9517772,21.4935257 C10.9110535,21.3375036 10.739168,21.7743653 10.4942972,22.2106981 C10.2843324,22.5856799 10.0198931,22.9606617 9.73852968,22.9606617 C9.66765995,22.9606617 9.59573246,22.9368617 9.52274721,22.8829151 Z" id="path-1"></path>
    </defs>
    <g id="图标" stroke="none" stroke-width="1" fill="none" fill-rule="evenodd">
        <g id="全部" transform="translate(-436.000000, -225.000000)">
            <g id="article_icon_share_qq_normal" transform="translate(436.000000, 225.000000)">
                <rect id="Path" fill="#68A5E1" x="0" y="0" width="36" height="36" rx="18"></rect>
                <mask id="mask-2" fill="white">
                    <use xlink:href="#path-1"></use>
                </mask>
                <use id="Clip-2" fill="#FFFFFF" xlink:href="#path-1"></use>
            </g>
        </g>
    </g>
</svg>