<?xml version="1.0" encoding="UTF-8"?>
<svg width="36px" height="36px" viewBox="0 0 36 36" version="1.1" xmlns="http://www.w3.org/2000/svg" xmlns:xlink="http://www.w3.org/1999/xlink">
    <!-- Generator: Sketch 50 (54983) - http://www.bohemiancoding.com/sketch -->
    <title>article_icon_share_weibo_normal</title>
    <desc>Created with Sketch.</desc>
    <defs>
        <path d="M22.3919643,10.0131369 C22.3919643,10.0131369 25.0051786,9.74902976 26.9514286,11.5892083 C28.8976786,13.4293869 28.2891071,16.4867083 28.2891071,16.4867083 C28.2478571,16.9345655 27.8573214,17.3026012 27.4126786,17.3518869 C27.4448214,17.3556369 27.4785714,17.357244 27.5123214,17.357244 L27.3114286,17.357244 C27.3457143,17.357244 27.3794643,17.3556369 27.4126786,17.3518869 C26.9808929,17.3026012 26.6926786,16.933494 26.7553571,16.4856369 C26.7553571,16.4856369 27.2348214,14.6326012 26.0669643,12.9563512 C24.8996429,11.2806369 22.3892857,11.5699226 22.3892857,11.5699226 C21.9425,11.5693869 21.56375,11.2426012 21.5171429,10.8043869 C21.5139286,10.8343869 21.5123214,10.8649226 21.5123214,10.895994 L21.5123214,10.7127798 C21.5123214,10.7433155 21.5139286,10.7738512 21.5171429,10.8043869 C21.56375,10.3651012 21.9371429,10.0158155 22.3919643,10.0131369 Z M8,20.5940298 C8,17.349744 14.1055357,12.2261726 16.4417857,12.2261726 C17.4210714,12.2261726 19.34375,12.9563512 17.9985714,15.2695655 C17.9610714,15.3349226 18.44,15.1318869 19.1369643,14.9288512 C20.1810714,14.6256369 21.7153571,14.3218869 22.7407143,14.915994 C24.4501786,15.9065298 22.7407143,17.4992083 22.7407143,17.675994 C22.7407143,17.8527798 26.1730357,17.8527798 26.1730357,20.5940298 C26.1730357,23.8388512 22.1353571,26.4692083 17.1066071,26.4692083 C12.0773214,26.4692083 8,23.8388512 8,20.5940298 Z M22.6828571,12.879744 C22.6828571,12.879744 23.9080357,12.5449226 24.9698214,13.5001012 C26.0316071,14.4552798 25.5976786,16.0356369 25.5976786,16.0356369 C25.5516071,16.3581369 25.2366071,16.6136726 24.9103571,16.6136726 L24.8525,16.6136726 C24.5251786,16.6136726 24.335,16.3629583 24.4244643,16.052244 C24.4244643,16.052244 24.8283929,15.1281369 24.2626786,14.4552798 C23.6958929,13.783494 22.6839286,13.9404583 22.6839286,13.9404583 C22.3866071,13.9431369 22.1455357,13.7395655 22.1058929,13.4583155 C22.1021429,13.4851012 22.1,13.5129583 22.1,13.5402798 L22.1,13.3763512 C22.1,13.4042083 22.1021429,13.4315298 22.1058929,13.4583155 C22.1455357,13.1706369 22.38875,12.9183155 22.6828571,12.879744 Z M16.2805357,17.105994 C13.0678571,17.5576012 10.7010714,19.6168869 10.9946429,21.7051012 C11.28875,23.7938512 14.13125,25.1208155 17.3444643,24.6692083 C20.5571429,24.2176012 22.9239286,22.1588512 22.6303571,20.0701012 C22.3753571,18.257244 20.19875,17.0181369 17.5276786,17.0181369 C17.1216071,17.0181369 16.7042857,17.0465298 16.2805357,17.105994 Z M12.7292857,21.8893869 C12.4196429,20.297244 13.7182143,18.7045655 15.6291071,18.3333155 C17.54,17.9620655 19.3405357,18.9520655 19.6501786,20.5442083 C19.95875,22.1363512 18.6617857,23.7290298 16.7503571,24.1002798 C16.47875,24.1527798 16.2092857,24.178494 15.94625,24.178494 C14.3573214,24.178494 12.995,23.2554583 12.7292857,21.8893869 Z M16.2253571,20.5940298 C16.2253571,20.9186726 16.4878571,21.1817083 16.8125,21.1817083 C17.1371429,21.1817083 17.4001786,20.9186726 17.4001786,20.5940298 C17.4001786,20.2693869 17.1371429,20.0068869 16.8125,20.0068869 C16.4878571,20.0068869 16.2253571,20.2693869 16.2253571,20.5940298 Z M14.7130357,20.9245655 C14.1248214,21.1988512 13.8151786,21.7779583 14.0208929,22.2193869 C14.2260714,22.6602798 14.8694643,22.7958155 15.4576786,22.5215298 C16.0453571,22.247244 16.3560714,21.6670655 16.1498214,21.2261726 C16.0164286,20.9401012 15.6982143,20.7826012 15.3301786,20.7826012 C15.1319643,20.7826012 14.91875,20.8281369 14.7130357,20.9245655 Z" id="path-1"></path>
    </defs>
    <g id="图标" stroke="none" stroke-width="1" fill="none" fill-rule="evenodd">
        <g id="全部" transform="translate(-324.000000, -225.000000)">
            <g id="article_icon_share_weibo_normal" transform="translate(324.000000, 225.000000)">
                <rect id="Rectangle-7" fill="#F56467" x="0" y="0" width="36" height="36" rx="18"></rect>
                <mask id="mask-2" fill="white">
                    <use xlink:href="#path-1"></use>
                </mask>
                <use id="Clip-2" fill="#FFFFFF" xlink:href="#path-1"></use>
            </g>
        </g>
    </g>
</svg>