<?xml version="1.0" encoding="UTF-8"?>
<svg width="36px" height="36px" viewBox="0 0 36 36" version="1.1" xmlns="http://www.w3.org/2000/svg" xmlns:xlink="http://www.w3.org/1999/xlink">
    <!-- Generator: Sketch 50 (54983) - http://www.bohemiancoding.com/sketch -->
    <title>article_icon_share_weixin_normal</title>
    <desc>Created with Sketch.</desc>
    <defs>
        <path d="M11.3255357,22.4344643 C11.1246429,22.3321429 11.9303571,20.6553571 11.7444643,20.5358929 C10.0794643,19.4725 9,17.7641071 9,15.83875 C9,12.61375 12.0251786,10 15.7564286,10 C19.275,10 22.1651786,12.3239286 22.4833929,15.2923214 C25.4432143,15.4080357 27.8003571,17.4560714 27.8003571,19.9658929 C27.8003571,21.52375 26.89125,22.90375 25.4930357,23.7544643 C25.23,23.9146429 26.0635714,25.2651786 25.7678571,25.3851786 C25.67625,25.4221429 25.30125,25.1510714 24.9267857,24.88 C24.5571429,24.6126786 24.1875,24.3448214 24.0921429,24.3732143 C23.5066071,24.5483929 22.8760714,24.6432143 22.21875,24.6432143 C19.8139286,24.6432143 17.7642857,23.3692857 16.9794643,21.5810714 C16.5825,21.64375 16.17375,21.6769643 15.7564286,21.6769643 C14.9228571,21.6769643 14.1251786,21.54625 13.3875,21.3073214 C13.2053571,21.2489286 12.7848214,21.5617857 12.3648214,21.8751786 C11.9796429,22.1617857 11.5939286,22.4489286 11.3925,22.4489286 C11.3673214,22.4489286 11.3448214,22.4446429 11.3255357,22.4344643 Z M10.1748214,15.8569643 C10.1748214,17.3307143 10.9869643,18.74875 12.2560714,19.6069643 C12.3225,19.6525 12.65625,19.8057143 12.6342857,20.02375 C12.5860714,20.5021429 12.4430357,20.83 12.4430357,20.83 C12.4430357,20.83 12.8341071,20.3805357 13.1255357,20.1635714 C13.2551786,20.0671429 13.4946429,20.1394643 13.5616071,20.1635714 C14.2355357,20.4051786 14.9769643,20.5391071 15.7564286,20.5391071 C16.0676786,20.5391071 16.3735714,20.5176786 16.6703571,20.4769643 C16.6489286,20.30875 16.6376786,20.1383929 16.6376786,19.9658929 C16.6376786,17.6419643 18.6573214,15.715 21.3053571,15.3496429 C21.00375,13.0021429 18.6342857,11.1748214 15.7564286,11.1748214 C12.6739286,11.1748214 10.1748214,13.2710714 10.1748214,15.8569643 Z M17.2248214,13.8185714 C17.2248214,13.3316071 17.6196429,12.9367857 18.1060714,12.9367857 C18.5930357,12.9367857 18.9878571,13.3316071 18.9878571,13.8185714 C18.9878571,14.305 18.5930357,14.6998214 18.1060714,14.6998214 C17.6196429,14.6998214 17.2248214,14.305 17.2248214,13.8185714 Z M12.525,13.8185714 C12.525,13.3316071 12.9198214,12.9367857 13.40625,12.9367857 C13.8926786,12.9367857 14.2875,13.3316071 14.2875,13.8185714 C14.2875,14.305 13.8926786,14.6998214 13.40625,14.6998214 C12.9198214,14.6998214 12.525,14.305 12.525,13.8185714 Z M23.1,18.2248214 C23.1,18.5489286 23.3630357,18.8125 23.6876786,18.8125 C24.0123214,18.8125 24.2753571,18.5489286 24.2753571,18.2248214 C24.2753571,17.9001786 24.0123214,17.6371429 23.6876786,17.6371429 C23.3630357,17.6371429 23.1,17.9001786 23.1,18.2248214 Z M19.5755357,18.2248214 C19.5755357,18.5489286 19.8380357,18.8125 20.1626786,18.8125 C20.4873214,18.8125 20.7498214,18.5489286 20.7498214,18.2248214 C20.7498214,17.9001786 20.4873214,17.6371429 20.1626786,17.6371429 C19.8380357,17.6371429 19.5755357,17.9001786 19.5755357,18.2248214 Z" id="path-1"></path>
    </defs>
    <g id="图标" stroke="none" stroke-width="1" fill="none" fill-rule="evenodd">
        <g id="全部" transform="translate(-492.000000, -225.000000)">
            <g id="article_icon_share_weixin_normal" transform="translate(492.000000, 225.000000)">
                <rect id="Path" fill="#8DC81B" x="0" y="0" width="36" height="36" rx="18"></rect>
                <mask id="mask-2" fill="white">
                    <use xlink:href="#path-1"></use>
                </mask>
                <use id="Clip-2" fill="#FFFFFF" xlink:href="#path-1"></use>
            </g>
        </g>
    </g>
</svg>