<?xml version="1.0" encoding="UTF-8"?>
<svg width="24px" height="40px" viewBox="0 0 24 40" version="1.1" xmlns="http://www.w3.org/2000/svg" xmlns:xlink="http://www.w3.org/1999/xlink">
    <!-- Generator: Sketch 50 (54983) - http://www.bohemiancoding.com/sketch -->
    <title>bozhu_icon_bianji</title>
    <desc>Created with Sketch.</desc>
    <defs></defs>
    <g id="图标" stroke="none" stroke-width="1" fill="none" fill-rule="evenodd">
        <g id="全部" transform="translate(-86.000000, -32.000000)">
            <g id="bozhu_icon_bianji" transform="translate(86.000000, 32.000000)">
                <path d="M1,0 L23,0 C23.5522847,-1.01453063e-16 24,0.44771525 24,1 L24,39 C24,39.5522847 23.5522847,40 23,40 C22.7836298,40 22.5730962,39.9298221 22.4,39.8 L12.6,32.45 C12.2444444,32.1833333 11.7555556,32.1833333 11.4,32.45 L1.6,39.8 C1.1581722,40.1313708 0.53137085,40.0418278 0.2,39.6 C0.0701778719,39.4269038 -4.39748499e-15,39.2163702 -2.88657986e-15,39 L-3.55271368e-15,1 C-3.62034905e-15,0.44771525 0.44771525,-9.5692398e-18 1,-1.11022302e-16 Z" id="Rectangle-3" fill="#779DE0"></path>
                <text id="编-辑" font-family="MicrosoftYaHei, Microsoft YaHei" font-size="10" font-weight="normal" line-spacing="13" fill="#FFFFFF">
                    <tspan x="7" y="14">编</tspan>
                    <tspan x="7" y="27">辑</tspan>
                </text>
            </g>
        </g>
    </g>
</svg>