<?xml version="1.0" standalone="no"?>
<!DOCTYPE svg PUBLIC "-//W3C//DTD SVG 1.1//EN" "http://www.w3.org/Graphics/SVG/1.1/DTD/svg11.dtd" >
<svg xmlns="http://www.w3.org/2000/svg">
<metadata>Generated by IcoMoon</metadata>
<defs>
<font id="icomoon" horiz-adv-x="1024">
<font-face units-per-em="1024" ascent="960" descent="-64" />
<missing-glyph horiz-adv-x="1024" />
<glyph unicode="&#x20;" horiz-adv-x="512" d="" />
<glyph unicode="&#xe900;" horiz-adv-x="1271" d="M1139.441 585.71c2.757-19.764 4.182-39.955 4.182-60.478 0-239.567-194.208-433.775-433.775-433.775-209.479 0-384.276 148.487-424.879 345.95h116.729c15.71 0 28.446 12.647 28.446 28.248s-12.736 28.248-28.446 28.248h-124.511c-0.738 10.347-1.114 20.794-1.114 31.329 0 15.659 0.83 31.124 2.448 46.354h64.154c29.161 0 52.801 22.133 52.801 49.434s-23.64 49.434-52.801 49.434h-41.695c3.401 9.575 7.129 18.996 11.171 28.248h19.946c11.602 0 21.007 9.485 21.007 21.186 0 11.233-8.668 20.424-19.626 21.141 74.846 130.256 215.364 217.976 376.371 217.976 204.131 0 375.328-141.003 421.509-330.924h-43.979c-11.602 0-21.007-9.485-21.007-21.186s9.405-21.186 21.007-21.186h52.062z" />
<glyph unicode="&#xe901;" horiz-adv-x="1271" d="M466.097 532.745c0-21.451-17.512-38.841-39.113-38.841h-260.753c-21.601 0-39.113 17.39-39.113 38.841s17.512 38.841 39.113 38.841h260.753c21.601 0 39.113-17.39 39.113-38.841z" />
<glyph unicode="&#xe902;" horiz-adv-x="1271" d="M543.779 398.566c0-21.451-17.512-38.841-39.113-38.841h-260.753c-21.601 0-39.113 17.39-39.113 38.841s17.512 38.841 39.113 38.841h260.753c21.601 0 39.113-17.39 39.113-38.841z" />
<glyph unicode="&#xe903;" horiz-adv-x="1271" d="M1193.49 649.269c0-11.701-9.405-21.186-21.007-21.186h-148.663c-11.602 0-21.007 9.485-21.007 21.186s9.405 21.186 21.007 21.186h148.663c11.602 0 21.007-9.485 21.007-21.186z" />
<glyph unicode="&#xe904;" horiz-adv-x="1271" d="M367.228 684.579c0-7.801-5.772-14.124-12.894-14.124h-66.018c-7.122 0-12.894 6.323-12.894 14.124s5.772 14.124 12.894 14.124h66.018c7.122 0 12.894-6.323 12.894-14.124z" />
<glyph unicode="&#xe905;" horiz-adv-x="1271" d="M77.683 532.745c0-21.451-17.39-38.841-38.841-38.841s-38.841 17.39-38.841 38.841c0 21.451 17.39 38.841 38.841 38.841s38.841-17.39 38.841-38.841z" />
<glyph unicode="&#xe906;" horiz-adv-x="1271" d="M1193.49 546.869c0-21.451-17.512-38.841-39.113-38.841h-260.753c-21.601 0-39.113 17.39-39.113 38.841s17.512 38.841 39.113 38.841h260.753c21.601 0 39.113-17.39 39.113-38.841z" />
<glyph unicode="&#xe907;" horiz-adv-x="1271" d="M1271.053 649.269c0-11.701-9.248-21.186-20.657-21.186s-20.657 9.485-20.657 21.186c0 11.701 9.248 21.186 20.657 21.186s20.657-9.485 20.657-21.186z" />
<glyph unicode="&#xe908;" horiz-adv-x="1271" d="M1221.738 892.91c0-13.651-11.066-24.717-24.717-24.717s-24.717 11.066-24.717 24.717c0 13.651 11.066 24.717 24.717 24.717s24.717-11.066 24.717-24.717z" />
<glyph unicode="&#xe909;" horiz-adv-x="1271" d="M1108.745 52.522c0-5.85-4.358-10.591-9.733-10.591h-849.168c-5.375 0-9.733 4.741-9.733 10.591v0.005c0 5.849 4.358 10.591 9.733 10.591h849.168c5.375 0 9.733-4.742 9.733-10.591v-0.005z" />
<glyph unicode="&#xe90a;" horiz-adv-x="1271" d="M1235.862 52.522c0-5.85-4.283-10.591-9.566-10.591h-79.737c-5.283 0-9.566 4.741-9.566 10.591v0.005c0 5.849 4.283 10.591 9.566 10.591h79.737c5.283 0 9.566-4.742 9.566-10.591v-0.005z" />
<glyph unicode="&#xe90b;" horiz-adv-x="1271" d="M670.897-7.503c0-3.9-1.871-7.062-4.18-7.062h-196.441c-2.308 0-4.18 3.162-4.18 7.062s1.871 7.062 4.18 7.062h196.441c2.308 0 4.18-3.162 4.18-7.062z" />
<glyph unicode="&#xe90c;" horiz-adv-x="1271" d="M529.655-56.938c0-3.9-1.871-7.062-4.18-7.062h-196.441c-2.308 0-4.18 3.162-4.18 7.062s1.871 7.062 4.18 7.062h196.441c2.308 0 4.18-3.162 4.18-7.062z" />
<glyph unicode="&#xe90d;" horiz-adv-x="1271" d="M946.317-56.938c0-3.9-1.902-7.062-4.247-7.062h-295.175c-2.345 0-4.247 3.162-4.247 7.062s1.902 7.062 4.247 7.062h295.175c2.345 0 4.247-3.162 4.247-7.062z" />
<glyph unicode="&#xe90e;" horiz-adv-x="1271" d="M1158.179-7.503c0-3.9-1.902-7.062-4.247-7.062h-295.175c-2.345 0-4.247 3.162-4.247 7.062s1.902 7.062 4.247 7.062h295.175c2.345 0 4.247-3.162 4.247-7.062z" />
<glyph unicode="&#xe90f;" horiz-adv-x="1271" d="M713.269-7.503c0-3.9-3.162-7.062-7.062-7.062s-7.062 3.162-7.062 7.062c0 3.9 3.162 7.062 7.062 7.062s7.062-3.162 7.062-7.062z" />
<glyph unicode="&#xe910;" horiz-adv-x="1271" d="M847.448-7.503c0-3.9-1.963-7.062-4.383-7.062h-118.351c-2.421 0-4.383 3.162-4.383 7.062s1.963 7.062 4.383 7.062h118.351c2.421 0 4.383-3.162 4.383-7.062z" />
<glyph unicode="&#xe911;" horiz-adv-x="1271" d="M844.904 606.957c-28.919 0-52.437 23.545-52.437 52.486v60.446h-188.525c-17.628 0-31.914-14.314-31.914-31.951v-331.596c0-17.637 14.287-31.929 31.914-31.929h268.099c17.618 0 31.904 14.292 31.904 31.929v250.614h-59.041zM812.99 719.89l90.955-92.376h-59.041c-17.627 0-31.914 14.292-31.914 31.929v60.446zM632.055 458.593h211.65c5.85 0 10.593-4.743 10.593-10.593s-4.743-10.593-10.593-10.593h-211.65c-5.85 0-10.593 4.743-10.593 10.593s4.743 10.593 10.593 10.593zM632.055 536.276h134.179c5.85 0 10.593-4.743 10.593-10.593s-4.743-10.593-10.593-10.593h-134.179c-5.85 0-10.593 4.743-10.593 10.593s4.743 10.593 10.593 10.593z" />
<glyph unicode="&#xe912;" glyph-name="fabu_navbar_icon_article" d="M460.8 499.2h-204.8c-28.277 0-51.2-22.923-51.2-51.2s22.923-51.2 51.2-51.2h204.8v-204.8c0-28.277 22.923-51.2 51.2-51.2s51.2 22.923 51.2 51.2v204.8h204.8c28.277 0 51.2 22.923 51.2 51.2s-22.923 51.2-51.2 51.2h-204.8v204.8c0 28.277-22.923 51.2-51.2 51.2s-51.2-22.923-51.2-51.2v-204.8zM512-64c-282.77 0-512 229.23-512 512s229.23 512 512 512c282.77 0 512-229.23 512-512s-229.23-512-512-512z" />
<glyph unicode="&#xe913;" glyph-name="fabu_navbar_icon_caogao" d="M870.4 396.8h25.6c70.692 0 128-57.308 128-128v-204.8c0-70.692-57.308-128-128-128h-768c-70.692 0-128 57.308-128 128v204.8c0 70.692 57.308 128 128 128h25.6v435.2c0 70.692 57.308 128 128 128h460.8c70.692 0 128-57.308 128-128v-435.2zM345.6 806.4c-21.208 0-38.4-17.192-38.4-38.4s17.192-38.4 38.4-38.4h332.8c21.208 0 38.4 17.192 38.4 38.4s-17.192 38.4-38.4 38.4h-332.8zM345.6 601.6c-21.208 0-38.4-17.192-38.4-38.4s17.192-38.4 38.4-38.4h332.8c21.208 0 38.4 17.192 38.4 38.4s-17.192 38.4-38.4 38.4h-332.8z" />
<glyph unicode="&#xe914;" glyph-name="sel_icon_shouqi" horiz-adv-x="2048" d="M1024-64l1024 1024h-2048z" />
<glyph unicode="&#xe915;" glyph-name="sel_icon_zhankai" horiz-adv-x="2048" d="M1024 960l1024-1024h-2048z" />
<glyph unicode="&#xe916;" glyph-name="tips_icon_guanbi" d="M574.691 448.004l435.872 435.872c17.915 17.908 17.915 46.272 0 62.693-17.908 17.908-46.274 17.908-62.695 0l-435.872-435.872-435.872 435.872c-17.908 17.908-46.272 17.908-62.693 0-17.908-17.915-17.908-46.279 0-62.693l435.872-435.872-435.872-435.872c-17.908-17.915-17.908-46.274 0-62.693 8.961-8.956 20.898-13.438 31.347-13.438s22.392 4.483 31.347 13.438l435.872 435.872 435.872-435.872c8.954-8.956 20.898-13.438 31.348-13.438 10.448 0 22.392 4.483 31.347 13.438 17.915 17.908 17.915 46.272 0 62.693l-435.872 435.872z" />
<glyph unicode="&#xe917;" glyph-name="tips_icon_warning" horiz-adv-x="284" d="M131.635 111.425c-13.061 0-23.525-4.251-32.906-13.371-9.17-8.908-13.395-18.904-13.395-31.67 0-13.149 4.21-23.168 13.267-31.849 9.37-8.989 19.886-13.202 33.034-13.202 13.146 0 23.666 4.214 33.043 13.203 9.051 8.681 13.265 18.707 13.265 31.848 0 12.757-4.229 22.761-13.397 31.671-9.385 9.118-19.853 13.37-32.912 13.37zM131.635 168.314c27.87 0 52.557-10.028 72.559-29.461 20.189-19.624 30.639-44.34 30.639-72.469 0-28.536-10.461-53.419-30.78-72.909-19.991-19.165-44.622-29.031-72.417-29.031-27.8 0-52.435 9.868-72.409 29.029-20.324 19.481-30.782 44.366-30.782 72.91 0 28.138 10.447 52.855 30.637 72.468 19.988 19.432 44.678 29.462 72.553 29.462zM100.39 874.667l11.619-584.257h35.782l11.619 584.257h-59.019zM216.864 902.546l-12.75-641.146c-0.308-15.486-12.95-27.879-28.439-27.879h-91.551c-15.489 0-28.131 12.393-28.439 27.879l-12.75 641.146c-0.317 15.928 12.508 29.010 28.439 29.010h117.051c15.931 0 28.756-13.082 28.439-29.010z" />
<glyph unicode="&#xe918;" glyph-name="Bottom_icon_weibo_def" d="M954.547 788.705c-66.749 75.031-166.872 102.82-255.87 83.368-22.25-5.558-33.374-25.010-30.593-47.242 5.562-22.231 25.031-33.347 47.28-30.568 63.968 13.895 136.279-5.558 183.559-58.357s61.186-125.052 38.937-188.967c-2.781-11.116-2.781-19.452 2.781-30.568 5.562-8.337 13.906-16.674 22.25-19.452 19.468-5.558 41.718 5.558 50.062 25.010 25.031 91.705 8.344 191.746-58.405 266.777zM834.133 541.746c16.738-5.577 36.267 2.789 41.846 22.309 13.949 44.617 5.579 92.024-27.897 128.275s-80.903 50.195-125.538 41.829c-19.528-2.789-30.687-22.309-25.108-39.040 2.79-19.52 22.318-30.675 39.056-25.097 22.318 5.577 44.636-2.789 61.374-19.52s19.528-41.829 13.949-64.138c-5.579-19.52 5.579-39.040 22.318-44.617zM767.179 477.609c-13.949 5.577-25.108 8.366-16.738 25.097 16.738 41.829 16.738 78.081 0 103.178-33.477 47.406-125.538 44.617-228.759 0 0 0-33.477-13.943-25.108 11.154 16.738 52.983 13.949 94.812-11.159 119.91-55.795 55.772-206.441-2.789-334.769-131.064-94.851-97.601-150.646-197.99-150.646-287.225 0-170.104 217.6-273.282 429.621-273.282 278.974 0 463.097 161.738 463.097 290.014 0 78.081-66.954 122.698-125.538 142.218zM429.621 106.726c-170.174-16.732-315.241 61.349-326.4 170.104-11.159 111.544 117.169 214.722 287.344 231.453s315.241-61.349 326.4-170.104c11.159-111.544-117.169-214.722-287.344-231.453zM444.511 425.718c-80.515 22.224-172.136-19.446-205.453-88.898-36.093-72.229 0-152.793 80.515-177.796 83.292-27.781 183.242 13.89 216.559 91.676 33.317 75.008-8.329 152.793-91.621 175.017zM383.431 239.588c-16.658-25.002-49.975-38.893-77.739-25.002-24.988 11.112-33.317 41.671-16.658 66.673s49.975 36.115 74.963 25.003c27.764-8.334 36.093-38.893 19.435-66.673zM405.504 304.598c-9.049 0-16.384 7.335-16.384 16.384s7.335 16.384 16.384 16.384c9.049 0 16.384-7.335 16.384-16.384s-7.335-16.384-16.384-16.384z" />
<glyph unicode="&#xe919;" glyph-name="Bottom_icon_weixin_def" d="M713.818 622.297c5.032 0 10.034-0.112 15.012-0.298-31.7 145.153-181.312 255.063-361.118 255.063-202.873 0-367.333-139.911-367.333-312.498 0-100.835 56.154-190.498 143.292-247.638l-36.7-108.254 121.527 66.641c42.937-14.972 89.936-23.247 139.213-23.247 9.499 0 18.914 0.306 28.231 0.91-10.28 27.225-15.849 56.237-15.849 86.355 0.002 156.277 149.415 282.967 333.726 282.967zM513.079 722.581c40.23 0 72.845-29.924 72.845-66.839 0-36.913-32.613-66.839-72.845-66.839s-72.845 29.924-72.845 66.839c0.002 36.915 32.615 66.839 72.845 66.839zM260.722 588.904c-40.23 0-72.845 29.924-72.845 66.839 0 36.913 32.613 66.839 72.845 66.839s72.845-29.924 72.845-66.839c0-36.913-32.613-66.839-72.845-66.839zM1023.959 339.329c0 145.235-138.854 262.971-310.141 262.971s-310.14-117.736-310.14-262.971c0-145.235 138.854-262.971 310.141-262.971 35.965 0 70.489 5.208 102.61 14.754l106.040-58.147-30.819 90.906c79.998 47.56 132.309 126.324 132.309 215.458zM635.518 350.059c-34.258 0-62.028 25.49-62.028 56.933s27.77 56.933 62.028 56.933c34.258 0 62.028-25.49 62.028-56.933s-27.77-56.933-62.028-56.933zM837.569 350.059c-34.258 0-62.028 25.49-62.028 56.933s27.77 56.933 62.028 56.933c34.258 0 62.028-25.49 62.028-56.933s-27.772-56.933-62.028-56.933z" />
<glyph unicode="&#xe91a;" glyph-name="bozhu_icon_bianji" d="M230.4 960h563.2c14.138 0 25.6-11.462 25.6-25.6v-972.8c0-14.138-11.462-25.6-25.6-25.6-5.539 0-10.929 1.797-15.36 5.12l-250.88 188.16c-9.102 6.827-21.618 6.827-30.72 0l-250.88-188.16c-11.311-8.483-27.357-6.191-35.84 5.12-3.323 4.431-5.12 9.821-5.12 15.36v972.8c0 14.138 11.462 25.6 25.6 25.6z" />
<glyph unicode="&#xe91b;" glyph-name="leftbar_info_icon_chongzhi" d="M378.292 713.966h243.614l65.324 89.614c0 0 48.976 59.762-16.35 86.354-62.456 25.445-162.261 23.452-170.77 23.242-8.559 0.211-108.314 2.203-170.77-23.242-65.3-26.591-16.374-86.354-16.374-86.354l65.325-89.614zM608.694 668.068h-221.623c0 0-293.231-109.371-293.231-411.125 0-263.746 322.676-271.937 404.043-269.849 81.387-2.087 404.043 6.102 404.043 269.849 0 301.754-293.231 411.125-293.231 411.125zM578.59 301.714h66.207c15.379 0 27.846-12.357 27.846-27.84 0-15.375-12.598-27.84-27.957-27.84h-107.814v-119.969c0-15.615-12.622-28.273-28.438-28.273-15.706 0-28.438 12.884-28.438 28.273v119.969h-100.761c-15.44 0-27.957 12.357-27.957 27.84 0 15.375 12.386 27.84 27.661 27.84h101.058v57.181h-99.917c-15.907 0-28.802 12.759-28.802 28.746 0 15.875 12.996 28.746 28.802 28.746h64.587l-74.796 74.796c-9.977 9.977-10.014 26.116 0.072 36.204 10.018 10.018 26.171 10.104 36.204 0.072l86.303-86.303c6.709-6.709 8.902-16.202 6.565-24.77h5.578c-1.447 8.094 0.957 16.704 7.198 22.945l87.837 87.837c10.21 10.21 26.651 10.121 36.847-0.074 10.266-10.266 10.228-26.693 0.073-36.847l-73.862-73.861h81.156c15.907 0 28.802-12.759 28.802-28.746 0-15.875-12.996-28.746-28.802-28.746h-106.969v-57.181l41.718 0.001z" />
<glyph unicode="&#xe91c;" glyph-name="daka_icon_one" d="M512-46.933c273.344 0 494.933 221.589 494.933 494.933s-221.589 494.933-494.933 494.933c-273.344 0-494.933-221.589-494.933-494.933s221.589-494.933 494.933-494.933zM512-64c-282.77 0-512 229.23-512 512s229.23 512 512 512c282.77 0 512-229.23 512-512s-229.23-512-512-512zM730.969 383.892l-32.956 32.956c-3.506 3.506-9.65 3.506-13.156 0l-137.903-137.836c-0.568-0.568-1.002-1.302-1.202-2.070l-13.79-49.451c-0.434-1.569-0.033-3.272 1.068-4.474 0.902-0.968 2.17-1.536 3.473-1.536 0.301 0 0.568 0.033 0.868 0.067l53.258 9.984c0.935 0.167 1.803 0.634 2.471 1.302l137.903 137.869c3.606 3.64 3.606 9.55-0.033 13.189zM709.633 356.545c-1.77-1.77-4.541-1.87-6.211-0.2l-32.89 32.89c-1.67 1.67-1.569 4.441 0.2 6.211s4.574 1.87 6.211 0.2l32.89-32.89c1.67-1.636 1.569-4.441-0.2-6.211zM480.995 316.466c0 82.91 67.212 150.122 150.122 150.122 26.318 0 32.51-2.623 32.51-2.623 21.802-9.16 39.648 2.709 39.648 26.361v153.089c0 23.651-19.351 43.003-43.003 43.003h-309.447c-23.651 0-43.003-19.351-43.003-43.003v-383.11c0-23.651 19.351-43.003 43.003-43.003h125.31c23.651 0 32.725 16.384 20.168 36.423 0.043 0.043-15.309 24.554-15.309 62.741z" />
<glyph unicode="&#xe91d;" glyph-name="daka_icon_three" d="M512-46.933c273.344 0 494.933 221.589 494.933 494.933s-221.589 494.933-494.933 494.933c-273.344 0-494.933-221.589-494.933-494.933s221.589-494.933 494.933-494.933zM512-64c-282.77 0-512 229.23-512 512s229.23 512 512 512c282.77 0 512-229.23 512-512s-229.23-512-512-512zM380.016 588.677c0-54.205 43.942-98.146 98.146-98.146s98.146 43.942 98.146 98.146c0 54.205-43.942 98.146-98.146 98.146s-98.146-43.942-98.146-98.146zM592.482 436.053c-33.786 19.842-72.235 30.358-111.416 30.473-123.363 0-223.274-97.999-224.818-219.378h281.905c-11.24 20.358-17.204 43.206-17.35 66.46 0 52.639 29.040 98.036 71.68 122.444zM750.631 374.786c9.997 9.997 26.206 9.997 36.204 0s9.997-26.206 0-36.204l-112.526-112.526c-9.997-9.997-26.206-9.997-36.204 0l-67.532 67.532c-9.997 9.997-9.997 26.206 0 36.204s26.206 9.997 36.204 0l49.43-49.43 94.424 94.424z" />
<glyph unicode="&#xe91e;" glyph-name="daka_icon_two" d="M618.426 386.97c36.456 0 66.178-29.68 66.178-66.178s-29.68-66.178-66.178-66.178c-36.456 0-66.137 29.68-66.137 66.178s29.68 66.178 66.137 66.178zM618.426 434.442c-62.767 0-113.65-50.883-113.65-113.65s50.883-113.65 113.65-113.65c62.767 0 113.65 50.883 113.65 113.65s-50.883 113.65-113.65 113.65zM760.967 201.987c-4.778 0.007-9.444 1.456-13.385 4.157l-57.781 39.532c-10.065 7.673-12.356 21.887-5.21 32.333s21.222 13.465 32.023 6.866l57.781-39.532c8.562-5.9 12.298-16.68 9.222-26.613s-12.25-16.715-22.648-16.744zM458.135 328.815c0 80.147 64.972 145.118 145.118 145.118 25.44 0 31.426-2.536 31.426-2.536 21.076-8.854 38.327 2.619 38.327 25.482v147.986c0 22.863-18.706 41.569-41.569 41.569h-299.132c-22.863 0-41.569-18.706-41.569-41.569v-370.34c0-22.863 18.706-41.569 41.569-41.569h121.133c22.863 0 31.634 15.838 19.496 35.209 0.042 0.042-14.799 23.736-14.799 60.649zM512-46.933c273.344 0 494.933 221.589 494.933 494.933s-221.589 494.933-494.933 494.933c-273.344 0-494.933-221.589-494.933-494.933s221.589-494.933 494.933-494.933zM512-64c-282.77 0-512 229.23-512 512s229.23 512 512 512c282.77 0 512-229.23 512-512s-229.23-512-512-512z" />
<glyph unicode="&#xe91f;" glyph-name="home_icon_see_normal" d="M511.318 192.722c187.73 0 442.37 191.85 460.067 244.59-6.906 57.779-246.563 266.73-460.067 266.73-203.096 0-460.187-166.433-460.211-268.002 5.343-50.039 252.053-243.317 460.211-243.317zM511.318 141.565c-213.266 0-511.318 200.718-511.318 294.034 0 147.874 299.835 319.601 511.318 319.601 231.425 0 511.325-224.907 511.325-319.601 0-78.795-305.929-294.034-511.325-294.034zM511.999 338.301c60.466 0 109.702 49.235 109.702 109.702 0 60.463-49.236 109.695-109.702 109.695s-109.697-49.232-109.697-109.695c0-60.467 49.232-109.702 109.697-109.702zM511.999 294.4c-84.84 0-153.599 68.763-153.599 153.603 0 84.837 68.758 153.597 153.599 153.597 84.845 0 153.601-68.759 153.601-153.597 0-84.84-68.757-153.603-153.601-153.603z" />
<glyph unicode="&#xe920;" glyph-name="home_leftbar_icon_get_def" d="M223.1 860.19l446.028-416.663-439.151-410.239c-23.577-22.032-23.577-58.738 0-80.765 23.579-22.031 62.878-22.031 86.457 0l480.418 448.784c0.976 0.919 1.96 1.838 3.927 2.756 24.561 22.944 24.561 59.658 0 82.602l-488.273 456.127c-24.561 22.944-63.862 22.944-88.423 0-25.544-22.944-25.544-59.658-0.982-82.602z" />
<glyph unicode="&#xe921;" glyph-name="icon_edit_normal" d="M827.279 19.678c22.69 0 41.060-18.73 41.060-41.856 0-23.093-18.369-41.822-41.060-41.822h-726.013c-22.661 0-41.031 18.73-41.031 41.822 0 23.128 18.376 41.856 41.031 41.856h726.013zM99.348 76.144l98.624 268.524 160.736-163.883-259.36-104.641zM391.667 211.652l-162.102 165.227 440.665 445.663 162.096-165.226-440.659-445.664zM862.567 691.649l-162.096 165.226 81.082 82.611c26.866 27.353 70.364 27.353 97.229 0l64.833-66.081c26.866-27.385 26.866-71.794 0-99.179l-81.048-82.577z" />
<glyph unicode="&#xe922;" glyph-name="navibar_user_icon_center" d="M903.932 67.223c-19.023-41.373-69.804-44.577-84.931-44.577h-622.889c-10.694 0.624-54.032 5.375-73.7 42.785-8.302 15.773-14.831 42.188 1.182 78.322 29.179 65.671 96.78 72.050 112.928 72.621 115.077 17.999 152.451 58.015 152.8 58.395l2.687 2.823c12.279 11.701 16.47 32.252 17.572 50.115-74.425 57.201-121.499 167.665-121.499 289.070 0 194.569 119.457 263.579 221.771 263.579 102.342 0 221.825-69.037 221.825-263.579 0-121.405-47.020-231.843-121.445-289.043 1.155-17.918 5.347-38.523 17.518-50.142l3.359-3.638c0.081 0 37.643-39.717 152.155-57.608 26.358-1.059 75.849-15.556 107.984-64.422 25.095-38.17 20.742-67.164 12.655-84.701h0.027z" />
<glyph unicode="&#xe923;" glyph-name="navibar_user_icon_news" d="M838.517 272.265c7.805 0.223 15.609-1.338 23.080-6.244-27.094 17.393-44.933 47.72-44.933 82.396v193.446c0 141.712-102.465 260.009-239.383 289.11v6.913c0 36.125-29.212 65.225-65.225 65.225s-65.225-29.212-65.225-65.225v-6.913c-136.917-29.101-239.383-147.287-239.383-289.11v-193.446c0-34.675-17.951-65.002-44.933-82.396 7.582 4.906 15.275 6.578 23.080 6.244-23.972-0.111-43.372-19.4-43.372-43.484s19.4-43.484 43.484-43.484h652.588c24.083 0 43.484 19.4 43.484 43.484 0.111 23.86-19.289 43.372-43.261 43.484zM512.167 32.882c60.097 0 108.82 48.724 108.82 108.82h-217.641c0-60.097 48.612-108.82 108.82-108.82z" />
<glyph unicode="&#xe924;" glyph-name="navibar_user_icon_out" d="M631.145 279.347c-3.24 0-5.767 0-8.286 0-86.58 0-173.158-0.009-259.74 0-12.836 0.004-21.201 5.887-23.264 16.412-0.405 2.102-0.367 4.311-0.367 6.462-0.016 76.94-0.018 153.876-0.011 230.815 0.003 14.593 7.905 22.357 22.726 22.357 86.972 0.004 173.946 0.004 260.922 0.004 2.341 0 4.701 0 8.020 0 0 2.496 0 4.747 0 7.004 0 68.475-0.009 136.955 0.009 205.435 0 9.423 4.493 16.939 12.101 19.818 8.755 3.315 16.523 1.788 23.122-5.185 3.784-3.999 7.905-7.677 11.791-11.566 49.029-48.922 98.048-97.867 147.064-146.789 62.958-62.821 125.92-125.625 188.878-188.443 10.481-10.448 10.539-21.469 0.181-31.804-90.099-89.944-180.188-179.896-270.314-269.805-25.632-25.57-51.401-50.985-77.011-76.577-6.591-6.595-13.942-9.485-22.941-6.068-8.751 3.32-12.871 10.207-12.871 21.038-0.013 66.308-0.009 132.626-0.009 198.933-0.001 2.342-0.001 4.679-0.001 7.959zM469.3 785.476c0-26.039 0-51.534 0-77.747-2.551 0-4.848 0-7.144 0-65.919 0-131.838 0.009-197.756-0.004-41.772-0.006-72.532-30.83-72.533-72.684-0.006-144.826 0.259-289.65-0.174-434.465-0.12-38.317 29.031-65.923 55.982-70.965 5.955-1.102 12.107-1.602 18.169-1.616 65.328-0.115 130.658-0.071 195.988-0.071 2.321 0 4.645 0 7.349 0 0-25.959 0-51.445 0-77.303-0.929-0.186-2.014-0.602-3.101-0.602-69.462 0-138.93-0.708-208.374 0.301-67.871 0.974-127.974 52.481-140.927 119.148-1.828 9.392-2.722 19.117-2.733 28.686-0.168 146.404-0.555 292.802 0.090 439.195 0.27 61.149 30.651 105.046 83.708 133.575 18.718 10.070 39.395 14.617 60.707 14.67 68.869 0.186 137.738 0.071 206.608 0.066 1.164-0.001 2.326-0.103 4.14-0.184z" />
<glyph unicode="&#xe925;" glyph-name="navibar_icon_search_normal" d="M987.917 39.338l-178.669 175.407c56.91 75.353 91.063 168.843 91.063 270.554 0 248.441-201.357 449.844-449.838 449.844-248.459 0-449.85-201.403-449.85-449.844 0-248.487 201.385-449.867 449.85-449.867 114.476 0 218.666 43.127 298.051 113.544l178.922-175.643c17.574-17.263 45.353-16.533 62.070 1.657 16.677 18.195 15.975 47.027-1.599 64.348zM450.502 114.789c-204.607 0-370.453 165.875-370.453 370.482 0 204.584 165.852 370.465 370.453 370.465 204.59 0 370.453-165.875 370.453-370.465 0-204.607-165.863-370.482-370.453-370.482z" />
<glyph unicode="&#xe926;" glyph-name="tips_icon_warning_new" horiz-adv-x="284" d="M131.635 168.314c27.87 0 52.557-10.028 72.559-29.461 20.189-19.624 30.639-44.34 30.639-72.469 0-28.536-10.461-53.419-30.78-72.909-19.991-19.165-44.622-29.031-72.417-29.031-27.8 0-52.435 9.868-72.409 29.029-20.324 19.481-30.782 44.366-30.782 72.91 0 28.138 10.447 52.855 30.637 72.468 19.988 19.432 44.678 29.462 72.553 29.462zM216.864 902.546l-12.75-641.146c-0.308-15.486-12.95-27.879-28.439-27.879h-91.551c-15.489 0-28.131 12.393-28.439 27.879l-12.75 641.146c-0.317 15.928 12.508 29.010 28.439 29.010h117.051c15.931 0 28.756-13.082 28.439-29.010z" />
<glyph unicode="&#xe927;" glyph-name="center_add_fenlei_normal" d="M460.8 499.2h-204.8c-28.277 0-51.2-22.923-51.2-51.2s22.923-51.2 51.2-51.2h204.8v-204.8c0-28.277 22.923-51.2 51.2-51.2s51.2 22.923 51.2 51.2v204.8h204.8c28.277 0 51.2 22.923 51.2 51.2s-22.923 51.2-51.2 51.2h-204.8v204.8c0 28.277-22.923 51.2-51.2 51.2s-51.2-22.923-51.2-51.2v-204.8zM512-64c-282.77 0-512 229.23-512 512s229.23 512 512 512c282.77 0 512-229.23 512-512s-229.23-512-512-512z" />
<glyph unicode="&#xe928;" glyph-name="center_navbar_icon_article" horiz-adv-x="896" d="M707.934 667.534c-74.947 0-135.898 60.951-135.898 135.87v156.477h-488.59c-45.684 0-82.71-37.054-82.71-82.711v-858.396c0-45.656 37.027-82.654 82.71-82.654h694.817c45.66 0 82.684 36.998 82.684 82.654v648.76l-153.013-0.001zM625.223 959.881l235.723-239.131h-153.013c-45.683 0-82.711 36.998-82.711 82.654v156.477zM508.865 431.018h-371.712v51.2h371.712v-51.2zM724.499 220.573h-587.346v51.2h587.346v-51.2z" />
<glyph unicode="&#xe929;" glyph-name="center_navbar_icon_class" horiz-adv-x="1088" d="M360.855 860.011c18.242 0 33.847-6.316 46.816-18.948s19.453-28.058 19.453-46.277v-262.955c0-18.242-6.484-33.847-19.453-46.816s-28.574-19.453-46.816-19.453h-262.955c-18.242 0-33.667 6.484-46.277 19.453s-18.926 28.574-18.948 46.816v262.955c0 18.242 6.316 33.667 18.948 46.277s28.058 18.926 46.277 18.948h262.955zM360.855 334.135c18.242 0 33.847-6.316 46.816-18.948s19.453-28.058 19.453-46.277v-263.998c0-18.242-6.484-33.667-19.453-46.277s-28.574-18.926-46.816-18.948h-262.955c-18.242 0-33.667 6.316-46.277 18.948s-18.926 28.058-18.948 46.277v263.998c0 18.242 6.316 33.667 18.948 46.277s28.058 18.926 46.277 18.948h262.955zM887.774 334.135c18.242 0 33.667-6.316 46.277-18.948s18.926-28.058 18.948-46.277v-263.998c0-18.242-6.316-33.667-18.948-46.277s-28.058-18.926-46.277-18.948h-262.955c-18.242 0-33.847 6.316-46.816 18.948s-19.453 28.058-19.453 46.277v263.998c0 18.242 6.484 33.667 19.453 46.277s28.574 18.926 46.816 18.948h262.955zM1033.976 744.335c14.023-14.023 21.035-30.504 21.035-49.441s-7.012-35.070-21.035-48.397l-195.643-195.643c-14.023-14.023-30.324-21.035-48.902-21.035s-34.879 7.012-48.902 21.035l-195.643 195.643c-13.328 13.328-19.992 29.46-19.992 48.397s6.664 35.417 19.992 49.441l195.643 195.643c14.023 13.328 30.324 19.992 48.902 19.992s34.879-6.664 48.902-19.992l195.643-195.643z" />
<glyph unicode="&#xe92a;" glyph-name="center_navbar_icon_comments" horiz-adv-x="1170" d="M963.048 82.286l-121.905-146.286-121.905 146.286h-646.095c-40.396 0-73.143 32.747-73.143 73.143v731.429c0 40.396 32.747 73.143 73.143 73.143h1024c40.396 0 73.143-32.747 73.143-73.143v-731.429c0-40.396-32.747-73.143-73.143-73.143h-134.095zM146.286 740.571v-73.143h877.714v73.143h-877.714zM146.286 521.143v-73.143h512v73.143h-512z" />
<glyph unicode="&#xe92b;" glyph-name="center_navbar_icon_news" horiz-adv-x="832" d="M783.331 250.298c8.78 0.251 17.561-1.505 25.965-7.024-30.48 19.568-50.55 53.685-50.55 92.695v217.627c0 159.426-115.273 292.511-269.305 325.249v7.777c0 40.64-32.864 73.379-73.379 73.379s-73.379-32.864-73.379-73.379v-7.777c-154.032-32.738-269.305-165.697-269.305-325.249v-217.627c0-39.010-20.195-73.128-50.55-92.695 8.529 5.519 17.184 7.401 25.965 7.024-26.968-0.125-48.794-21.825-48.794-48.919s21.825-48.919 48.919-48.919h734.161c27.094 0 48.919 21.825 48.919 48.919 0.125 26.843-21.7 48.794-48.668 48.919zM416.188-19.007c67.609 0 122.423 54.814 122.423 122.423h-244.846c0-67.609 54.689-122.423 122.423-122.423z" />
<glyph unicode="&#xe92c;" glyph-name="center_navbar_icon_set" d="M875.636 470.859c0-52.151 41.323-94.58 92.922-96.569-13.369-64.858-39.556-125.075-75.796-178-38.009 33.81-96.127 32.484-132.478-3.867-35.909-35.909-37.677-93.033-5.193-131.042-53.035-34.694-113.142-59.444-177.668-71.708-4.42 49.279-45.743 87.95-96.237 87.95-49.942 0-91.044-37.898-96.127-86.514-63.2 13.038-121.981 38.119-173.801 72.703 29.722 37.898 27.070 92.922-7.845 127.837-35.025 35.025-90.16 37.567-128.058 7.624-35.136 52.262-60.659 111.595-73.808 175.348 48.616 5.083 86.514 46.185 86.514 96.127 0 50.494-38.672 91.817-87.95 96.237 12.154 64.526 37.014 124.633 71.598 177.558 38.009-33.037 95.574-31.49 131.704 4.641 36.572 36.572 37.677 95.243 3.315 133.251 52.814 36.13 113.032 62.317 177.889 75.686 1.989-51.709 44.417-92.922 96.569-92.922 52.593 0 95.464 42.097 96.569 94.469 66.405-12.596 128.058-38.561 182.088-74.802-37.346-37.788-37.235-98.668 0.331-136.345 37.567-37.567 98.226-37.677 136.014-0.552 35.799-53.698 61.322-114.799 73.808-180.541-52.262-1.105-94.359-43.865-94.359-96.569zM482.511 690.293c-115.462 0-208.937-93.585-208.937-208.937 0-115.462 93.585-208.937 208.937-208.937 115.462 0 208.937 93.585 208.937 208.937s-93.475 208.937-208.937 208.937z" />
<glyph unicode="&#xe92d;" glyph-name="search_icon_normal" horiz-adv-x="1069" d="M1043.579 25.247l-186.437 183.033c59.384 78.629 95.022 176.184 95.022 282.317 0 259.243-210.111 469.403-469.397 469.403-259.261 0-469.409-210.159-469.409-469.403 0-259.291 210.141-469.427 469.409-469.427 119.453 0 228.173 45.002 311.010 118.481l186.701-183.279c18.338-18.014 47.325-17.252 64.769 1.729 17.402 18.986 16.669 49.072-1.669 67.146zM482.797 103.978c-213.503 0-386.56 173.087-386.56 386.59 0 213.479 173.063 386.572 386.56 386.572 213.485 0 386.56-173.087 386.56-386.572 0-213.503-173.075-386.59-386.56-386.59z" />
<glyph unicode="&#xe92e;" glyph-name="shenqing_icon_contact" d="M512 960c-282.784 0-512-229.216-512-512s229.216-512 512-512c282.784 0 512 229.216 512 512s-229.216 512-512 512zM715.776 160.864c-0.8-0.192-2.656-0.512-6.048-0.512-42.144 0-172.704 43.52-307.296 178.048-150.336 150.272-183.136 291.072-177.92 313.504 12.704 54.752 64.736 83.776 82.112 84.448 16.832-13.376 90.176-118.4 91.2-140.576 0.48-10.528-12.864-32.256-22.624-48.128-14.016-22.816-25.088-40.8-20.736-56.032 11.488-40.128 39.328-83.712 78.336-122.72 40.64-40.608 81.632-66.848 121.856-77.984l1.184-0.32c2.144-0.608 4.448-0.928 6.816-0.928 13.376 0 28.992 9.664 48.704 21.92 16.352 10.144 36.736 22.784 47.968 22.784 22.368-0.992 129.056-75.552 140.608-91.040 1.088-13.408-27.2-69.088-84.16-82.464z" />
<glyph unicode="&#xe92f;" d="M512 960c282.77 0 512-229.23 512-512s-229.23-512-512-512c-282.77 0-512 229.23-512 512s229.23 512 512 512z" />
<glyph unicode="&#xe930;" horiz-adv-x="1271" d="M1139.441 585.71c2.757-19.764 4.182-39.955 4.182-60.478 0-239.567-194.208-433.775-433.775-433.775-209.479 0-384.276 148.487-424.879 345.95h116.729c15.71 0 28.446 12.647 28.446 28.248s-12.736 28.248-28.446 28.248h-124.511c-0.738 10.347-1.114 20.794-1.114 31.329 0 15.659 0.83 31.124 2.448 46.354h64.154c29.161 0 52.801 22.133 52.801 49.434s-23.64 49.434-52.801 49.434h-41.695c3.401 9.575 7.129 18.996 11.171 28.248h19.946c11.602 0 21.007 9.485 21.007 21.186 0 11.233-8.668 20.424-19.626 21.141 74.846 130.256 215.364 217.976 376.371 217.976 204.131 0 375.328-141.003 421.509-330.924h-43.979c-11.602 0-21.007-9.485-21.007-21.186s9.405-21.186 21.007-21.186h52.062z" />
<glyph unicode="&#xe931;" horiz-adv-x="1271" d="M466.097 532.745c0-21.451-17.512-38.841-39.113-38.841h-260.753c-21.601 0-39.113 17.39-39.113 38.841s17.512 38.841 39.113 38.841h260.753c21.601 0 39.113-17.39 39.113-38.841z" />
<glyph unicode="&#xe932;" horiz-adv-x="1271" d="M543.779 398.566c0-21.451-17.512-38.841-39.113-38.841h-260.753c-21.601 0-39.113 17.39-39.113 38.841s17.512 38.841 39.113 38.841h260.753c21.601 0 39.113-17.39 39.113-38.841z" />
<glyph unicode="&#xe933;" horiz-adv-x="1271" d="M1193.49 649.269c0-11.701-9.405-21.186-21.007-21.186h-148.663c-11.602 0-21.007 9.485-21.007 21.186s9.405 21.186 21.007 21.186h148.663c11.602 0 21.007-9.485 21.007-21.186z" />
<glyph unicode="&#xe934;" horiz-adv-x="1271" d="M367.228 684.579c0-7.801-5.772-14.124-12.894-14.124h-66.018c-7.122 0-12.894 6.323-12.894 14.124s5.772 14.124 12.894 14.124h66.018c7.122 0 12.894-6.323 12.894-14.124z" />
<glyph unicode="&#xe935;" horiz-adv-x="1271" d="M77.683 532.745c0-21.451-17.39-38.841-38.841-38.841s-38.841 17.39-38.841 38.841c0 21.451 17.39 38.841 38.841 38.841s38.841-17.39 38.841-38.841z" />
<glyph unicode="&#xe936;" horiz-adv-x="1271" d="M1193.49 546.869c0-21.451-17.512-38.841-39.113-38.841h-260.753c-21.601 0-39.113 17.39-39.113 38.841s17.512 38.841 39.113 38.841h260.753c21.601 0 39.113-17.39 39.113-38.841z" />
<glyph unicode="&#xe937;" horiz-adv-x="1271" d="M1271.053 649.269c0-11.701-9.248-21.186-20.657-21.186s-20.657 9.485-20.657 21.186c0 11.701 9.248 21.186 20.657 21.186s20.657-9.485 20.657-21.186z" />
<glyph unicode="&#xe938;" horiz-adv-x="1271" d="M1221.738 892.91c0-13.651-11.066-24.717-24.717-24.717s-24.717 11.066-24.717 24.717c0 13.651 11.066 24.717 24.717 24.717s24.717-11.066 24.717-24.717z" />
<glyph unicode="&#xe939;" horiz-adv-x="1271" d="M1108.745 52.522c0-5.85-4.358-10.591-9.733-10.591h-849.168c-5.375 0-9.733 4.741-9.733 10.591v0.005c0 5.849 4.358 10.591 9.733 10.591h849.168c5.375 0 9.733-4.742 9.733-10.591v-0.005z" />
<glyph unicode="&#xe93a;" horiz-adv-x="1271" d="M1235.862 52.522c0-5.85-4.283-10.591-9.566-10.591h-79.737c-5.283 0-9.566 4.741-9.566 10.591v0.005c0 5.849 4.283 10.591 9.566 10.591h79.737c5.283 0 9.566-4.742 9.566-10.591v-0.005z" />
<glyph unicode="&#xe93b;" horiz-adv-x="1271" d="M670.897-7.503c0-3.9-1.871-7.062-4.18-7.062h-196.441c-2.308 0-4.18 3.162-4.18 7.062s1.871 7.062 4.18 7.062h196.441c2.308 0 4.18-3.162 4.18-7.062z" />
<glyph unicode="&#xe93c;" horiz-adv-x="1271" d="M529.655-56.938c0-3.9-1.871-7.062-4.18-7.062h-196.441c-2.308 0-4.18 3.162-4.18 7.062s1.871 7.062 4.18 7.062h196.441c2.308 0 4.18-3.162 4.18-7.062z" />
<glyph unicode="&#xe93d;" horiz-adv-x="1271" d="M946.317-56.938c0-3.9-1.902-7.062-4.247-7.062h-295.175c-2.345 0-4.247 3.162-4.247 7.062s1.902 7.062 4.247 7.062h295.175c2.345 0 4.247-3.162 4.247-7.062z" />
<glyph unicode="&#xe93e;" horiz-adv-x="1271" d="M1158.179-7.503c0-3.9-1.902-7.062-4.247-7.062h-295.175c-2.345 0-4.247 3.162-4.247 7.062s1.902 7.062 4.247 7.062h295.175c2.345 0 4.247-3.162 4.247-7.062z" />
<glyph unicode="&#xe93f;" horiz-adv-x="1271" d="M713.269-7.503c0-3.9-3.162-7.062-7.062-7.062s-7.062 3.162-7.062 7.062c0 3.9 3.162 7.062 7.062 7.062s7.062-3.162 7.062-7.062z" />
<glyph unicode="&#xe940;" horiz-adv-x="1271" d="M847.448-7.503c0-3.9-1.963-7.062-4.383-7.062h-118.351c-2.421 0-4.383 3.162-4.383 7.062s1.963 7.062 4.383 7.062h118.351c2.421 0 4.383-3.162 4.383-7.062z" />
<glyph unicode="&#xe941;" horiz-adv-x="1271" d="M831.675 606.897c24.34 0 44.138-19.603 44.021-43.702v-175.040c0-24.1-19.798-43.702-44.138-43.702h-86.762l-45.652-55.349-45.768 55.349h-86.645c-24.34 0-44.138 19.603-44.138 43.702v175.040c0 24.1 19.798 43.702 44.138 43.702h264.944zM603.415 453.535c11.762 0 21.312 9.455 21.312 21.102s-9.55 21.102-21.312 21.102c-11.762 0-21.312-9.455-21.312-21.102s9.55-21.102 21.312-21.102zM699.377 453.535c11.762 0 21.312 9.455 21.312 21.102s-9.55 21.102-21.312 21.102c-11.762 0-21.312-9.455-21.312-21.102s9.55-21.102 21.312-21.102zM795.34 453.535c11.762 0 21.312 9.455 21.312 21.102s-9.55 21.102-21.312 21.102c-11.762 0-21.312-9.455-21.312-21.102s9.55-21.102 21.312-21.102z" />
<glyph unicode="&#xe942;" horiz-adv-x="1271" d="M614.4 567.416c125.727 46.686 203.333 43.881 229.784-14.737 20.912-46.343 12.137-87.828-24.55-122.334h105.497c7.801 0 14.124 6.324 14.124 14.124v204.8c0 7.801-6.324 14.124-14.124 14.124h-296.607c-7.801 0-14.124-6.324-14.124-14.124v-81.853z" />
<glyph unicode="&#xe943;" glyph-name="article_icon_collect_normal" d="M636.945 587.904l-126.144 268.187-126.301-268.389-279.731-41.952 203.486-208.704-48.743-294.199 251.686 136.477 248.57-139.060-46.311 292.113 206.141 211.362-282.654 44.165zM506.725 864.756c0.129-0.311 0.268-0.603 0.413-0.878l-0.413 0.878zM762.929 37.949l-1.667-4.167 0.887-3.634c0.616-1.849 0.312-0.53 0.312 1.834 0 2.338 1.236 3.574 3.574 3.574 0.916 0 1.68-0.035 2.302-0.086l-2.060 1.152c-0.903 0.353-1.998 0.787-3.349 1.327zM963.139 506.97l-189.026-193.873 42.006-264.959c1.616-4.847 3.231-9.694 3.231-16.156 0-29.081-24.234-53.315-53.315-53.315-8.078 0-16.156 3.231-24.234 6.462l-231.032 129.248-229.416-124.402c-17.772-9.694-40.39-8.078-56.546 3.231-17.772 11.309-25.85 32.312-22.618 51.699l45.237 273.037-189.026 193.873c-14.54 12.925-19.387 33.928-12.925 53.315s22.618 32.312 42.006 35.543l258.497 38.775 116.324 247.188c9.694 19.387 27.465 30.696 48.468 30.696s40.39-11.309 48.468-30.696l116.324-247.188 258.497-40.39c19.387-3.231 35.543-16.156 42.006-35.543s1.616-40.39-12.925-56.546z" />
<glyph unicode="&#xe944;" glyph-name="article_icon_collect_pressed" d="M976.064 563.516c-6.462 19.387-22.618 32.312-42.006 35.543l-258.497 40.39-116.324 247.188c-8.078 19.387-27.465 30.696-48.468 30.696s-38.775-11.309-48.468-30.696l-116.324-247.188-258.497-38.775c-19.387-3.231-35.543-16.156-42.006-35.543s-1.616-40.39 12.925-53.315l189.026-193.873-45.237-273.037c-3.231-19.387 4.847-40.39 22.618-51.699 16.156-11.309 38.775-12.925 56.546-3.231l229.416 124.402 231.032-129.248c8.078-3.231 16.156-6.462 24.234-6.462 29.081 0 53.315 24.234 53.315 53.315 0 6.462-1.616 11.309-3.231 16.156l-42.006 264.959 189.026 193.873c14.54 16.156 19.387 37.159 12.925 56.546z" />
<glyph unicode="&#xe945;" glyph-name="article_icon_tuijian_normal" horiz-adv-x="819" d="M147.251 236.078c-89.921 75.031-147.138 187.938-147.138 314.208 0 225.902 183.13 409.032 409.032 409.032s409.032-183.13 409.032-409.032c0-127.806-58.617-241.921-150.433-316.929v-292.074l-264.394 90.896-256.099-90.896v294.795zM82.715 550.286c0-116.622 62.217-224.386 163.215-282.697s225.432-58.311 326.43 0c100.998 58.311 163.215 166.075 163.215 282.697 0 180.282-146.148 326.43-326.43 326.43s-326.43-146.148-326.43-326.43zM124.073 550.286c0 157.441 127.631 285.073 285.073 285.073s285.073-127.631 285.073-285.073c0-101.847-54.335-195.957-142.536-246.88s-196.871-50.923-285.073 0c-88.202 50.923-142.536 145.033-142.536 246.88zM222.4 640.467v-28h93.6c-29.6-49.2-64.8-90.267-105.6-123.2 5.333-7.2 11.6-16.133 18.8-26.8 20.267 17.067 39.6 36.733 58 59v-158.2h30.4v198.8c10.8 15.733 21.2 32.533 31.2 50.4h248.8v28h-234c3.067 6 6.133 12.133 9.2 18.4h-31.6c-3.067-6.267-6.2-12.4-9.4-18.4h-109.4zM347.2 492.467v-28h120.4v-48.4c0-14.933-6.933-22.4-20.8-22.4-20.267 0-42.667 1.067-67.2 3.2 2.133-11.467 3.867-22.267 5.2-32.4 29.6-0.267 52.8-0.4 69.6-0.4 29.067 0 43.6 15.733 43.6 47.2v53.2h105.2v28h-105.2v8l77.6 49.2v27.2h-206.8v-27.2h157.2l-58.4-37.6v-19.6h-120.4zM221.6 717.267v-28h105.6v-24.8h30.4v24.8h111.2v-29.2h30.4v29.2h104v28h-104v36h-30.4v-36h-111.2v35.6h-30.4v-35.6h-105.6z" />
<glyph unicode="&#xe946;" glyph-name="article_icon_zan_normal" d="M585.953 860.395c0.006 0.083 0.012 0.165 0.018 0.246l-2.773 0.154c0.186-0.021 0.643-0.162 1.33-0.449 0.432 0.017 0.906 0.034 1.426 0.049zM585.904 859.712c-0.63-9.411-1.020-14.325-1.823-18.57-2.844-90.658-43.627-176.136-108.821-254.923-29.281-35.386-58.521-63.892-82.861-84.491v-484.78c0-0.224 22.088-11.879 39.041-11.879h374.158c2.882 4.128 6.171 9.758 9.526 16.452 7.342 14.649 13.076 29.978 15.702 38.413 41.444 140.925 67.963 248.984 82.571 328.214 8.406 45.592 11.048 70.618 11.048 78.989 0 4.712 0.818 4.802 1.324 4.471-1.876 0.468-4.578 0.793-5.783 0.76 0.254 0.014-0.912-0.023-3.499-0.111h-332.413l19.429 71.757c47.152 174.145 35.157 267.283-3.546 305.242-5.895 5.781-11.043 8.964-14.051 10.457zM802.825 1.285c-0.233-0.186-0.414-0.358-0.547-0.509 0.399 0.452 0.812 0.947 1.237 1.483l-0.69-0.974zM658.413 586.034l10.773-14.078c-3.176-13.72-6.758-27.983-10.773-42.811h43.534l11.378-14.868c1.353 4.999 2.665 9.955 3.934 14.868h199.226c0 0 64.849 5.385 64.848-62.010 0 0 0-97.056-95.931-423.252 0 0-29.717-95.703-66.21-95.703h-387.753c-27.029 0-95.929 18.209-95.929 68.768v512.197c0 0 191.841 141.529 191.841 322.146 5.414 9.437-9.427 66.042 62.161 66.042 0 0 151.129-16.878 82.833-331.299h-13.932zM211.993 472.087h-110.757l28.755-467.016h82.002v467.016zM131.47-18.94c0 0.612-0.039 1.235-0.115 1.866l0.115-1.866zM229.99 472.088l0.341 0.003-0.727-0.005h-0.285c0.211-0.001 0.434 0 0.671 0.001zM229.605 528.975c0 0 39.277 0.502 39.277-39.173v-519.872c0 0 0.246-21.749-27.617-21.749h-133.749c0 0-32.935 0-32.935 32.879l-31.914 516.57c0 0 0.492 31.346 32.406 31.346h154.532z" />
<glyph unicode="&#xe947;" glyph-name="article_icon_zan_pressed" d="M916.485 529.145h-258.072c100 369.325-68.901 388.188-68.901 388.188-71.587 0-56.747-56.606-62.161-66.042 0-180.616-191.841-322.146-191.841-322.146v-512.197c0-50.558 68.901-68.768 95.929-68.768h387.753c36.493 0 66.21 95.703 66.21 95.703 95.931 326.196 95.931 423.252 95.931 423.252 0.001 67.395-64.848 62.010-64.848 62.010zM229.605 528.975h-154.532c-31.914 0-32.406-31.346-32.406-31.346l31.914-516.57c0-32.879 32.935-32.879 32.935-32.879h133.749c27.863 0 27.617 21.749 27.617 21.749v519.872c0 39.674-39.277 39.173-39.277 39.173z" />
<glyph unicode="&#xe948;" glyph-name="center_icon_comments_normal" horiz-adv-x="1317" d="M357.677 38.669c47.848 11.95 87.683 27.011 116.434 44.601l23.17 14.176 26.806-4.384c43.63-7.135 88.558-10.776 134.198-10.776 327.338 0 585.143 186.193 585.143 402.286s-257.805 402.286-585.143 402.286c-327.338 0-585.143-186.193-585.143-402.286 0-111.331 68.212-218.026 189.452-295.161l35.97-22.885-2.186-42.577c-1.908-37.166-4.673-70.396-8.802-99.661 23.966 3.967 47.482 8.732 70.1 14.381zM270.347-52.288c-58.23-8.128-103.223-10.109-111.114-10.592 30.182 7.806 42.932 33.057 51.741 77.202 25.686 2.505 51.393 5.794 76.603 9.966-4.175-29.59-9.744-55.126-17.23-76.576zM172.723-61.431c-2.808-1.070-5.728-1.604-8.759-1.604-5.964 0-7.275 0-4.732 0.156l13.491 1.449zM223.332 127.698c-136.938 87.123-223.332 214.711-223.332 356.873 0 262.572 294.725 475.429 658.286 475.429s658.286-212.857 658.286-475.429c0-262.572-294.725-475.429-658.286-475.429-50.177 0-99.043 4.055-146.003 11.735-88.129-53.917-226.851-73.191-301.889-80.080l-3.704 50.8c7.773 32.121 13.625 77.317 16.643 136.101zM453.487 499.2c0-40.396-32.747-73.143-73.143-73.143s-73.143 32.747-73.143 73.143c0 40.396 32.747 73.143 73.143 73.143s73.143-32.747 73.143-73.143zM746.058 499.2c0-40.396-32.747-73.143-73.143-73.143s-73.143 32.747-73.143 73.143c0 40.396 32.747 73.143 73.143 73.143s73.143-32.747 73.143-73.143zM1038.629 499.2c0-40.396-32.747-73.143-73.143-73.143s-73.143 32.747-73.143 73.143c0 40.396 32.747 73.143 73.143 73.143s73.143-32.747 73.143-73.143z" />
<glyph unicode="&#xe949;" glyph-name="home_icon_see_normal2" horiz-adv-x="1707" d="M852.197 22.537c312.883 0 737.284 319.75 766.778 407.65-11.51 96.298-410.938 444.549-766.778 444.549-338.494 0-766.978-277.389-767.018-446.671 8.905-83.398 420.088-405.529 767.018-405.529zM852.197-62.725c-355.444 0-852.197 334.53-852.197 490.057 0 246.456 499.724 532.668 852.197 532.668 385.709 0 852.209-374.846 852.209-532.668 0-131.326-509.881-490.057-852.209-490.057zM853.331 265.168c100.776 0 182.836 82.059 182.836 182.837 0 100.771-82.060 182.825-182.836 182.825-100.774 0-182.828-82.054-182.828-182.825 0-100.778 82.053-182.837 182.828-182.837zM853.331 192c-141.4 0-255.998 114.605-255.998 256.005 0 141.395 114.597 255.995 255.998 255.995 141.408 0 256.002-114.598 256.002-255.995 0-141.4-114.594-256.005-256.002-256.005z" />
<glyph unicode="&#xe94a;" glyph-name="shenqing_icon_introduce" d="M512-64c-282.77 0-512 229.23-512 512s229.23 512 512 512c282.77 0 512-229.23 512-512s-229.23-512-512-512zM307.2 755.2c-28.277 0-51.2-22.923-51.2-51.2v-512c0-28.277 22.923-51.2 51.2-51.2h409.6c28.277 0 51.2 22.923 51.2 51.2v512c0 28.277-22.923 51.2-51.2 51.2h-409.6zM332.8 601.6h358.4c14.138 0 25.6-11.462 25.6-25.6s-11.462-25.6-25.6-25.6h-358.4c-14.138 0-25.6 11.462-25.6 25.6s11.462 25.6 25.6 25.6zM332.8 473.6h358.4c14.138 0 25.6-11.462 25.6-25.6s-11.462-25.6-25.6-25.6h-358.4c-14.138 0-25.6 11.462-25.6 25.6s11.462 25.6 25.6 25.6zM332.8 345.6h204.8c14.138 0 25.6-11.462 25.6-25.6s-11.462-25.6-25.6-25.6h-204.8c-14.138 0-25.6 11.462-25.6 25.6s11.462 25.6 25.6 25.6z" />
<glyph unicode="&#xe94b;" glyph-name="shenqing_icon_username" d="M512.001-64c-282.77 0-512.001 229.228-512.001 511.999s229.23 512.001 512.001 512.001c282.767 0 511.999-229.228 511.999-512.001 0-282.77-229.232-511.999-511.999-511.999zM737.404 336.822c-45.293 20.334-27.849 4.776-83.453 25.583-55.6 20.781-68.765 27.563-68.765 27.563l3.2 36.317c0 0 51.073 15.912 60.664 78.165 19.185-4.683 25.682 18.998 26.721 34.131 1.141 14.62 11.346 60.194-12.134 56.127 4.808 30.43 8.573 57.938 6.861 72.501-5.865 51.12-47.719 104.495-153.365 108.391-25.961-1.128-49.292-6.393-69.482-14.544-7.768-3.135-58.352 3.182-65.164-10.617-3.705-7.508 7.678-30.379 1.573-35.279-24.771-19.885-18.099-23.394-20.932-47.989-1.693-14.563 1.756-42.047 6.557-72.529-23.464 4.12-13.365-41.534-12.333-56.148 1.136-15.128 7.484-38.893 26.724-34.197 9.552-62.257 71.994-78.252 71.994-78.252l3.234-36.548c0 0-13.175-7.251-68.771-28.024-55.601-20.809-38.167-4.308-83.453-24.639-71.571-32.14-71.571-120.52-71.571-120.52h0.018c0-0.021-0.006-0.036-0.006-0.057 0-13.399 12.034-24.255 26.878-24.255h519.683c14.844 0 26.881 10.858 26.881 24.255 0 0.021-0.006 0.036-0.006 0.057h0.016c-0.001 0-0.001 88.38-71.568 120.51z" />
<glyph unicode="&#xe94c;" glyph-name="shenqing_icon_works" d="M512 960c-283.733 0-512-228.267-512-512s228.267-512 512-512c283.733 0 512 228.267 512 512s-228.267 512-512 512zM275.2 563.2l78.933-78.933c8.533-8.533 8.533-21.333 0-29.867s-21.333-8.533-29.867 0l-78.933 78.933c-49.067 49.067-49.067 130.133 0 181.333 49.067 49.067 130.133 49.067 181.333 0l138.667-138.667c49.067-49.067 49.067-130.133 0-181.333-8.533-8.533-21.333-8.533-29.867 0s-8.533 21.333 0 29.867c34.133 34.133 34.133 87.467 0 121.6l-138.667 138.667c-34.133 34.133-87.467 34.133-121.6 0-32-34.133-32-87.467 0-121.6zM757.333 202.667c-49.067-49.067-130.133-49.067-181.333 0l-138.667 138.667c-49.067 49.067-49.067 130.133 0 181.333 8.533 8.533 21.333 8.533 29.867 0s8.533-21.333 0-29.867c-34.133-34.133-34.133-87.467 0-121.6l138.667-138.667c34.133-34.133 87.467-34.133 121.6 0s34.133 87.467 0 121.6l-78.933 78.933c-8.533 8.533-8.533 21.333 0 29.867s21.333 8.533 29.867 0l78.933-78.933c49.067-49.067 49.067-130.133 0-181.333z" />
<glyph unicode="&#xe94d;" glyph-name="shenqing_icon_write" d="M295.436 281.806l48.364-48.498 116.484 42.485-122.452 122.316-42.396-116.303zM511.509 960c-282.53 0-511.509-229.007-511.509-511.513 0-282.476 228.98-511.509 511.509-511.509 282.476 0 511.51 229.033 511.51 511.509 0 282.506-229.034 511.513-511.51 511.513zM485.922 250.157l-0.273 0.318c-1.414-1.185-2.963-2.278-4.784-2.916l-235.61-85.975c-6.149-2.186-13.070-0.728-17.623 4.009-4.642 4.554-6.148 11.476-3.871 17.575l85.883 235.524c0.64 1.774 1.641 3.279 2.869 4.737l-0.184 0.226 211.572 211.522c22.952-22.904 41.847-41.755 41.847-41.755l-165.757-165.486c-2.686-2.596-3.871-6.010-3.871-9.471 0-3.415 1.185-6.833 3.871-9.473 2.598-2.549 6.013-3.961 9.563-3.961s6.922 1.412 9.515 3.961l165.669 165.394 52.047-51.96-164.937-164.756c-5.192-5.235-5.192-13.75 0-18.986 2.55-2.507 6.013-3.917 9.564-3.917 3.598 0 6.966 1.41 9.516 3.871 0 0.045 164.892 164.755 164.892 164.755s24.227-24.227 41.622-41.712l-211.523-211.523zM782.555 546.652l-66.030-65.984c-33.924 33.88-112.749 112.754-173.542 173.431l66.119 66.074c23.68 23.658 62.387 23.703 86.023 0l87.432-87.479c23.679-23.657 23.634-62.272-0.001-86.043z" />
<glyph unicode="&#xe94e;" glyph-name="tips_icon_cha" d="M574.691 448.004l435.872 435.872c17.915 17.908 17.915 46.272 0 62.693-17.908 17.908-46.274 17.908-62.695 0l-435.872-435.872-435.872 435.872c-17.908 17.908-46.272 17.908-62.693 0-17.908-17.915-17.908-46.279 0-62.693l435.872-435.872-435.872-435.872c-17.908-17.915-17.908-46.274 0-62.693 8.961-8.956 20.898-13.438 31.347-13.438s22.392 4.482 31.347 13.438l435.872 435.872 435.872-435.872c8.954-8.956 20.898-13.438 31.348-13.438 10.448 0 22.392 4.482 31.347 13.438 17.915 17.908 17.915 46.272 0 62.693l-435.872 435.872z" />
<glyph unicode="&#xe94f;" glyph-name="tips_icon_wrong" d="M0 448.378c0 282.189 229.076 510.946 511.66 510.946s511.664-228.757 511.664-510.946c0-282.19-229.082-510.953-511.664-510.953-282.584 0-511.66 228.763-511.66 510.953zM511.66 267.034c-12.051 0-22.394-4.206-31.030-12.602-8.648-8.4-12.959-18.617-12.959-30.646 0-12.262 4.312-22.535 12.959-30.824 8.636-8.285 18.979-12.429 31.030-12.429 12.049 0 22.392 4.144 31.034 12.429 8.642 8.289 12.959 18.562 12.959 30.824 0 12.028-4.317 22.246-12.959 30.646-8.642 8.396-18.985 12.602-31.034 12.602zM545.082 716.215h-68.886l7.504-377.325h53.879l7.504 377.325z" />
<glyph unicode="&#xe950;" d="M512 960c282.77 0 512-229.23 512-512s-229.23-512-512-512c-282.77 0-512 229.23-512 512s229.23 512 512 512z" />
<glyph unicode="&#xe951;" d="M512 960c282.77 0 512-229.23 512-512s-229.23-512-512-512c-282.77 0-512 229.23-512 512s229.23 512 512 512z" />
<glyph unicode="&#xe952;" d="M512 960c282.77 0 512-229.23 512-512s-229.23-512-512-512c-282.77 0-512 229.23-512 512s229.23 512 512 512z" />
<glyph unicode="&#xe953;" glyph-name="bozhu_icon_zhuanjia2" horiz-adv-x="614" d="M25.6 960h563.2c14.138 0 25.6-11.462 25.6-25.6v-972.8c0-14.138-11.462-25.6-25.6-25.6-5.539 0-10.929 1.797-15.36 5.12l-250.88 188.16c-9.102 6.827-21.618 6.827-30.72 0l-250.88-188.16c-11.311-8.483-27.357-6.191-35.84 5.12-3.323 4.431-5.12 9.821-5.12 15.36v972.8c0 14.138 11.462 25.6 25.6 25.6z" />
<glyph unicode="&#xe954;" glyph-name="leftbar_info_icon_exit" d="M576.33 297.425c-3.318 0-5.905 0-8.484 0-88.654 0-177.305-0.009-265.961 0-13.143 0.005-21.709 6.028-23.821 16.805-0.415 2.153-0.376 4.414-0.376 6.617-0.016 78.783-0.018 157.561-0.011 236.343 0.003 14.943 8.094 22.892 23.27 22.892 89.055 0.005 178.112 0.005 267.171 0.005 2.398 0 4.813 0 8.212 0 0 2.556 0 4.86 0 7.172 0 70.115-0.009 140.235 0.009 210.356 0 9.649 4.6 17.345 12.391 20.292 8.965 3.395 16.919 1.831 23.676-5.309 3.875-4.094 8.094-7.861 12.074-11.843 50.203-50.094 100.397-100.211 150.586-150.305 64.466-64.325 128.936-128.634 193.402-192.957 10.732-10.698 10.791-21.983 0.186-32.566-92.257-92.098-184.504-184.205-276.788-276.267-26.246-26.182-52.632-52.206-78.855-78.411-6.748-6.753-14.276-9.712-23.49-6.214-8.96 3.399-13.18 10.451-13.18 21.541-0.014 67.897-0.009 135.802-0.009 203.698-0.001 2.398-0.001 4.791-0.001 8.15zM410.609 815.676c0-26.663 0-52.768 0-79.609-2.612 0-4.965 0-7.315 0-67.498 0-134.995 0.009-202.492-0.005-42.772-0.006-74.269-31.568-74.271-74.425-0.006-148.295 0.266-296.587-0.179-444.87-0.122-39.235 29.727-67.502 57.323-72.664 6.098-1.129 12.397-1.641 18.605-1.654 66.892-0.118 133.787-0.073 200.682-0.073 2.377 0 4.756 0 7.525 0 0-26.581 0-52.677 0-79.154-0.952-0.19-2.062-0.616-3.175-0.616-71.125 0-142.258-0.725-213.365 0.308-69.496 0.997-131.039 53.738-144.302 122.002-1.872 9.617-2.787 19.574-2.798 29.373-0.172 149.911-0.568 299.814 0.092 449.713 0.276 62.614 31.385 107.562 85.713 136.774 19.167 10.311 40.338 14.967 62.161 15.021 70.518 0.19 141.037 0.073 211.557 0.068 1.192-0.001 2.381-0.105 4.239-0.189z" />
<glyph unicode="&#xe955;" glyph-name="leftbar_info_icon_mima" d="M165.779 371.547l38.883 38.883c13.96 13.96 27.123 20.144 39.486 18.547 12.365-1.595 22.732-6.58 31.109-14.957l41.277-41.277-111.874-111.874-36.491 36.491c-25.525 25.526-26.32 50.256-2.391 74.187zM911.197 469.657c-11.566-29.113-29.113-55.434-52.643-78.966-18.347-18.347-38.59-33.004-60.725-43.972-22.138-10.97-45.067-18.347-68.798-22.138s-47.66-3.987-71.791-0.598c-24.128 3.389-47.362 10.268-69.696 20.641l-251.264-251.262c-7.176-7.176-15.453-12.862-24.824-17.050-9.375-4.188-19.147-6.58-29.32-7.176-10.168-0.598-20.237 0.697-30.206 3.888-9.974 3.192-18.747 8.574-26.328 16.153-7.577 7.577-13.259 16.652-17.046 27.221-3.79 10.571-5.785 21.337-5.985 32.303-0.199 10.968 1.497 21.438 5.084 31.41 3.59 9.971 8.977 18.545 16.153 25.722l251.862 251.862c-10.37 22.337-17.154 45.467-20.343 69.398s-2.886 47.759 0.896 71.491c3.789 23.732 11.27 46.563 22.435 68.498 11.165 21.938 25.723 41.877 43.674 59.826 23.53 23.53 49.852 41.075 78.966 52.643 29.118 11.568 58.93 17.25 89.44 17.054 30.511-0.202 60.324-6.085 89.439-17.651 29.113-11.566 55.239-28.917 78.367-52.047 23.134-23.134 40.485-49.258 52.051-78.371 11.568-29.113 17.449-58.928 17.651-89.439 0.2-30.511-5.483-60.321-17.050-89.44zM685.867 644.98c-22.333 0-41.68-8.177-58.029-24.527-15.953-15.953-23.928-35.096-23.933-57.432 0-22.334 7.981-41.479 23.931-57.429 16.354-16.354 35.698-24.532 58.030-24.532 22.336 0.005 41.479 7.981 57.432 23.934 16.349 16.349 24.527 35.694 24.527 58.029s-8.178 41.68-24.532 58.032c-15.947 15.947-35.093 23.926-57.427 23.926z" />
<glyph unicode="&#xe956;" glyph-name="leftbar_info_icon_shezhi" d="M974.233 509.459c-2.673 34.69-9.123 37.828-43.406 35.097-37.944-3.022-70.019 15.863-83.093 48.926-13.423 33.818-3.719 68.682 25.858 92.913 19.931 16.328 22.371 29.576 4.3 48.694-27.194 28.763-55.55 56.538-85.127 82.802-22.952 20.337-33.644 17.723-53.052-6.74-23.708-29.867-61.651-38.757-96.109-22.662-32.307 15.108-47.473 42.709-44.975 81.873 1.685 26.845-6.217 36.259-33.005 38.292-20.918 1.627-41.837 2.731-61.477 4.009-20.628-2.266-39.861-3.951-58.92-6.508-26.671-3.545-32.424-11.331-30.099-38.641 3.545-41.43-13.713-72.576-48.113-86.812-33.353-13.829-67.869-3.893-94.075 27.020-15.515 18.304-29.053 20.977-46.195 4.765-28.821-27.078-57.119-54.969-83.383-84.604-22.429-25.277-19.931-33.876 5.985-55.492 24.637-20.57 35.329-46.892 28.472-78.735-7.031-32.366-27.543-53.168-59.618-60.664-11.796-2.731-24.754-0.988-37.13-0.872-16.851 0.174-27.485-7.496-29.693-23.998-6.101-45.788-6.334-91.635 1.976-137.248 3.254-18.013 12.958-24.986 31.145-23.882 9.588 0.581 19.291 2.847 28.705 1.918 33.586-3.312 59.966-25.625 69.031-57.061 9.065-31.262-1.685-63.162-28.647-84.836-22.197-17.839-24.637-30.216-5.346-50.727 26.729-28.414 54.446-56.073 83.732-81.815 24.928-21.906 34.399-19.35 55.202 7.205 28.53 36.491 79.665 41.372 114.645 11.447 23.475-20.105 29.751-45.498 26.671-75.016-2.266-21.79 5.753-34.341 24.87-34.748 42.941-0.872 85.998-1.046 128.823 1.511 27.891 1.685 33.411 11.621 30.274 39.745-4.59 40.791 12.551 72.808 46.776 87.335 34.574 14.643 69.612 4.707 95.237-27.020 15.689-19.408 29.46-22.255 47.241-5.288 29.46 28.066 58.107 57.177 85.127 87.567 19.64 22.081 16.851 33.993-6.799 51.831-19.756 14.875-30.913 34.632-32.307 59.211-2.905 50.262 38.060 88.381 88.962 83.325 25.974-2.557 38.699 4.823 39.28 27.485 0.988 40.094 1.336 80.42-1.743 120.397zM512.806 245.014c-111.681 1.22-201.282 92.099-199.83 202.677 1.453 109.125 91.518 198.842 199.132 198.377 111.217-0.465 202.967-91.925 201.805-201.34-1.104-110.868-91.867-200.934-201.108-199.713z" />
<glyph unicode="&#xe957;" glyph-name="login_btn_overseas" d="M810.897 386.863c-39.945-12.085-446.132-129.614-446.132-129.614s-112.455-37.639-195.667 63.839l92.345 38.377c16.052-5.443 30.997-4.982 50.831 1.384l104.983 26.015-157.475 233.214c0 0-31.919 50.646 78.691 25.923 0 0 200.095-153.231 236.166-181.368 0 0 18.45-10.517 52.492 0l157.475 51.846c0 0 106.644 32.565 131.183-25.923 25.831-61.348-65.038-91.606-104.891-103.692zM151.386 339.815c-41.145 45.942-48.986 72.972-48.986 72.972s8.487 56.182 78.691 0c20.48-16.421 42.252-27.676 56.089-36.901l-85.795-36.071z" />
<glyph unicode="&#xe958;" glyph-name="login_btn_phone" d="M662.299 805.659h-298.959c-45.040 0-81.534-36.519-81.534-81.531v-543.541c0-45.012 36.495-81.532 81.534-81.532h298.96c45.040 0 81.534 36.52 81.534 81.532v543.541c0 45.011-36.494 81.531-81.535 81.531zM485.641 778.482h54.357c7.511 0 13.589-6.078 13.589-13.588s-6.078-13.589-13.589-13.589h-54.357c-7.51 0-13.589 6.078-13.589 13.589s6.078 13.588 13.589 13.588zM512.82 132.258c-19.19 0-34.742 15.552-34.742 34.741s15.553 34.741 34.742 34.741c19.189 0 34.742-15.553 34.742-34.741 0.001-19.19-15.553-34.741-34.742-34.741zM689.477 248.529c0-7.511-6.078-13.588-13.589-13.588h-326.138c-7.511 0-13.589 6.077-13.589 13.588v462.010c0 7.511 6.078 13.588 13.589 13.588h326.138c7.511 0 13.589-6.078 13.589-13.588v-462.010z" />
<glyph unicode="&#xe959;" glyph-name="login_input_icon_jiaoyannew" d="M885.134 721.959c0.251-30.819 1.163-122.712 2.738-275.678 2.362-229.449-244.233-426.204-386.927-426.204s-386.927 217.398-386.927 436.464c0 121.034 1.643 258.499 1.643 258.499 1.206 27.504 21.564 50.378 48.742 54.767 53.29 4.956 105.534 17.878 154.99 38.337 53.415 16.481 102.45 44.742 143.489 82.698 22.738 16.36 53.387 16.36 76.126 0 43.348-34.257 91.277-62.277 142.393-83.245 52.197-15.953 105.453-28.215 159.371-36.694 26.599-5.581 44.361-24.070 44.361-48.943zM749.313 546.906v-1.095c9.783 9 14.021 22.536 11.118 35.509s-12.506 23.411-25.193 27.383c-12.686 3.972-26.528 0.875-36.311-8.126l-243.164-230.020-122.677 128.702c-9 9.783-22.536 14.021-35.509 11.118s-23.411-12.506-27.383-25.193c-3.972-12.686-0.875-26.528 8.126-36.311l148.965-154.99 7.12-6.024c14.205-9.004 32.712-7.198 44.909 4.381l270 254.665z" />
<glyph unicode="&#xe95a;" glyph-name="login_input_icon_xiala" d="M512 260.769l325.835 325.835c19.995 19.995 52.413 19.995 72.408 0s19.995-52.413 0-72.408l-362.039-362.039c-19.995-19.995-52.413-19.995-72.408 0l-362.039 362.039c-19.995 19.995-19.995 52.413 0 72.408s52.413 19.995 72.408 0l325.835-325.835z" />
<glyph unicode="&#xe95b;" glyph-name="login_input_icon_lock" d="M365.714 602.413c0 80.798 65.487 146.286 146.286 146.286s146.286-65.487 146.286-146.286c0-17.213-3.511-33.451-8.972-48.762h106.496v48.762c0 134.632-109.178 243.81-243.81 243.81-134.68 0-243.81-109.129-243.81-243.81v-48.762c0 0 44.325 0 106.496 0-5.461 15.36-8.972 31.598-8.972 48.762zM755.81 553.651h-487.619c-53.882 0-97.524-43.691-97.524-97.524v-406.349c0-53.882 43.642-97.524 97.524-97.524h487.619c53.882 0 97.524 43.691 97.524 97.524v406.349c0 53.833-43.642 97.524-97.524 97.524zM560.762 217.746v-62.318c0-26.917-21.845-48.762-48.762-48.762s-48.762 21.845-48.762 48.762v62.269c-29.013 16.92-48.762 48.030-48.762 84.017 0 53.882 43.642 97.524 97.524 97.524s97.524-43.642 97.524-97.524c0-35.986-19.749-67.096-48.762-83.968z" />
<glyph unicode="&#xe95c;" glyph-name="login_input_icon_phone" d="M859.732 71.685c0-18.717-3.743-36.124-11.23-52.221s-17.781-30.322-30.883-42.675c-13.102-12.353-28.45-22.086-46.044-29.199s-36.498-10.669-56.713-10.669h-398.675c-20.215 0-39.119 3.556-56.713 10.669s-32.942 16.845-46.044 29.199c-13.102 12.353-23.396 26.578-30.883 42.675s-11.23 33.504-11.23 52.221v752.429c0 18.717 3.743 36.311 11.23 52.782s17.781 30.883 30.883 43.237c13.102 12.353 28.45 22.086 46.044 29.199s36.498 10.669 56.713 10.669h398.675c20.215 0 39.119-3.556 56.713-10.669s32.942-16.845 46.044-29.199c13.102-12.353 23.396-26.766 30.883-43.237s11.23-34.065 11.23-52.782v-752.429zM768.767 770.208h-507.609v-643.495h507.609v643.495zM514.963 95.268c-15.722 0-29.386-5.615-40.991-16.845s-17.407-25.081-17.407-41.552c0-15.722 5.802-29.386 17.407-40.991s25.268-17.407 40.991-17.407c16.471 0 30.322 5.802 41.552 17.407s16.845 25.268 16.845 40.991c0 16.471-5.615 30.322-16.845 41.552s-25.081 16.845-41.552 16.845zM604.805 865.666c0 5.989-1.872 10.669-5.615 14.038s-7.861 5.054-12.353 5.054h-142.625c-3.743 0-7.674-1.685-11.792-5.054s-6.177-8.048-6.177-14.038c0-5.989 1.872-10.669 5.615-14.038s7.861-5.054 12.353-5.054h142.625c4.492 0 8.61 1.685 12.353 5.054s5.615 8.048 5.615 14.038z" />
<glyph unicode="&#xe95d;" glyph-name="login_input_icon_user" d="M770.844 624.356c0-142.956-115.889-258.844-258.844-258.844s-258.844 115.889-258.844 258.844c0 142.956 115.889 258.844 258.844 258.844s258.844-115.889 258.844-258.844zM292.807 415.044c45.818-68.347 126.859-95.058 219.193-95.058 92.343 0 173.391 26.687 219.207 95.048 96.299-68.579 159.105-181.139 159.105-308.367 0-208.935-756.622-208.935-756.622 0 0 127.235 62.812 239.8 159.119 308.377z" />
<glyph unicode="&#xe95e;" glyph-name="login_input_icon_yanzheng" d="M859.732 71.685c0-18.717-3.743-36.124-11.23-52.221s-17.781-30.322-30.883-42.675c-13.102-12.353-28.45-22.086-46.044-29.199s-36.498-10.669-56.713-10.669h-398.675c-20.215 0-39.119 3.556-56.713 10.669s-32.942 16.845-46.044 29.199c-13.102 12.353-23.396 26.578-30.883 42.675s-11.23 33.504-11.23 52.221v752.429c0 18.717 3.743 36.311 11.23 52.782s17.781 30.883 30.883 43.237c13.102 12.353 28.45 22.086 46.044 29.199s36.498 10.669 56.713 10.669h398.675c20.215 0 39.119-3.556 56.713-10.669s32.942-16.845 46.044-29.199c13.102-12.353 23.396-26.766 30.883-43.237s11.23-34.065 11.23-52.782v-752.429zM768.767 770.208h-507.609v-643.495h507.609v643.495zM514.963 95.268c-15.722 0-29.386-5.615-40.991-16.845s-17.407-25.081-17.407-41.552c0-15.722 5.802-29.386 17.407-40.991s25.268-17.407 40.991-17.407c16.471 0 30.322 5.802 41.552 17.407s16.845 25.268 16.845 40.991c0 16.471-5.615 30.322-16.845 41.552s-25.081 16.845-41.552 16.845zM604.805 865.666c0 5.989-1.872 10.669-5.615 14.038s-7.861 5.054-12.353 5.054h-142.625c-3.743 0-7.674-1.685-11.792-5.054s-6.177-8.048-6.177-14.038c0-5.989 1.872-10.669 5.615-14.038s7.861-5.054 12.353-5.054h142.625c4.492 0 8.61 1.685 12.353 5.054s5.615 8.048 5.615 14.038zM415.861 362.667h-134.306v35.694h44.861v137.639l-46.111-10.417v36.806l90.972 19.167v-183.194h44.583v-35.694zM587.944 362.667h-140.278v35.278l61.806 59.306c12.963 12.407 22.037 22.824 27.222 31.25s7.778 17.176 7.778 26.25c0 20.463-10.972 30.694-32.917 30.694-18.426 0-36.25-7.407-53.472-22.222v39.861c18.426 12.222 39.352 18.333 62.778 18.333 21.204 0 38.009-5.393 50.417-16.181s18.611-25.717 18.611-44.792c0-25.185-15.278-51.574-45.833-79.167l-44.861-40.417v-0.833h88.75v-37.361zM628.778 409.472c14.352-10.741 31.111-16.111 50.278-16.111 12.13 0 21.759 2.685 28.889 8.056s10.694 13.009 10.694 22.917c0 10.185-4.236 17.963-12.708 23.333s-20.347 8.056-35.625 8.056h-19.167v34.583h17.639c28.889 0 43.333 9.722 43.333 29.167 0 18.333-11.065 27.5-33.194 27.5-14.445 0-28.472-4.722-42.083-14.167v37.083c14.815 7.685 32.268 11.528 52.361 11.528 20.37 0 36.898-4.699 49.583-14.097s19.028-22.43 19.028-39.097c0-28.148-14.259-45.833-42.778-53.056v-0.694c15-1.667 26.991-7.153 35.972-16.458s13.472-20.625 13.472-33.958c0-20.463-7.477-36.435-22.431-47.917s-34.884-17.222-59.792-17.222c-22.13 0-39.954 3.657-53.472 10.972v39.583z" />
<glyph unicode="&#xe95f;" glyph-name="signup_input_icon_mail" d="M80.729 736.758l396.446-251.837c18.226-11.589 51.423-11.589 69.65 0l387.714 246.986c7.385 4.696 16.027 5.785 23.874 3.738-14.272 31.451-45.974 53.38-82.701 53.38h-727.424c-34.509 0-64.579-19.36-79.924-47.788 4.27-0.549 8.491-2.015 12.365-4.479zM579.291 433.861c-18.374-11.682-42.271-18.116-67.291-18.116s-48.919 6.435-67.291 18.116l-387.18 245.952v-467.033c0-50.045 40.714-90.76 90.761-90.76h727.424c50.045 0 90.761 40.714 90.761 90.76v467.728l-387.182-246.647z" />
<glyph unicode="&#xe960;" glyph-name="signup_input_icon_mailyanzheng" d="M80.729 736.758l396.446-251.837c18.226-11.589 51.423-11.589 69.65 0l387.714 246.986c7.385 4.696 16.027 5.785 23.874 3.738-14.272 31.451-45.974 53.38-82.701 53.38h-727.424c-34.509 0-64.579-19.36-79.924-47.788 4.27-0.549 8.491-2.015 12.365-4.479zM579.291 433.861l387.182 246.647v-467.728c0-50.045-40.715-90.76-90.761-90.76h-727.424c-50.046 0-90.761 40.714-90.761 90.76v467.033l387.18-245.952c18.373-11.682 42.27-18.116 67.291-18.116s48.918 6.435 67.291 18.116zM420 177.911v35.694h-44.583v183.194l-90.972-19.167v-36.806l46.111 10.417v-137.639h-44.861v-35.694h134.306zM592.083 177.911v37.361h-88.75v0.833l44.861 40.417c30.556 27.593 45.833 53.981 45.833 79.167 0 19.074-6.204 34.005-18.611 44.792s-29.213 16.181-50.417 16.181c-23.426 0-44.352-6.111-62.778-18.333v-39.861c17.222 14.815 35.046 22.222 53.472 22.222 21.945 0 32.917-10.231 32.917-30.694 0-9.074-2.593-17.824-7.778-26.25s-14.259-18.843-27.222-31.25l-61.806-59.306v-35.278h140.278zM632.917 224.717v-39.583c13.519-7.315 31.342-10.972 53.472-10.972 24.908 0 44.838 5.741 59.792 17.222s22.431 27.454 22.431 47.917c0 13.333-4.491 24.653-13.472 33.958s-20.972 14.792-35.972 16.458v0.694c28.519 7.222 42.778 24.907 42.778 53.056 0 16.667-6.343 29.699-19.028 39.097s-29.213 14.097-49.583 14.097c-20.093 0-37.546-3.843-52.361-11.528v-37.083c13.611 9.444 27.639 14.167 42.083 14.167 22.13 0 33.194-9.167 33.194-27.5 0-19.445-14.444-29.167-43.333-29.167h-17.639v-34.583h19.167c15.278 0 27.153-2.685 35.625-8.056s12.708-13.148 12.708-23.333c0-9.907-3.565-17.546-10.694-22.917s-16.759-8.056-28.889-8.056c-19.167 0-35.926 5.37-50.278 16.111z" />
<glyph unicode="&#xe961;" d="M270.869 309.108c-19.797 14.653-18.022 51.887-5.22 87.556 12.938 35.94 45.507 70.556 45.868 78.198 1.324 28.433-2.798 33.142 0 40.619 6.258 16.729 13.87 10.305 13.87 18.985 0 109.339 81.251 197.978 181.472 197.978 100.206 0 181.472-88.639 181.472-197.978 0-4.197 10.892 0 16.097-18.985 1.083-3.926 1.82-19.076 0.542-40.619-0.587-10.365 27.605-22.957 42.197-78.198 14.607-55.256 0-81.297-7.296-87.556-9.041-7.763-19.482 5.687-27.906 19.121-7.898 12.607-14.036 25.184-15.6 20.4-7.958-24.115-11.704-40.227-35.157-66.479-1.249-1.399 27.124-11.644 35.157-33.533 7.687-20.971 22.671-54.203-75.309-64.629-30.824-3.295-57.076 5.747-75.414 14.803-15.886 7.823-25.86 15.646-27.771 15.48-7.672-0.677-4.242 0-12.501 0-6.755 0-7.191-0.496-13.539 0-1.76 0.12-20.866-30.283-106.314-30.283-66.237 0-83.372 41.702-70.073 64.629 13.344 22.912 35.563 29.591 32.419 33.232-15.42 17.872-26.071 36.993-32.419 54.263-1.565 4.303-2.888 8.5-3.926 12.517-1.158 4.438-6.048-7.988-13.013-20.4-5.972-10.666-13.494-21.332-21.497-21.332-2.016 0-4.062 0.677-6.138 2.211z" />
<glyph unicode="&#xe962;" d="M370.777 385.153c0 0-149.135 124.19-143.040 139.444 6.095 15.238 197.669 28.724 197.669 28.724s71.177 179.124 88.411 179.124c17.234 0 88.396-179.124 88.396-179.124s192.366-13.547 197.684-28.724c5.288-15.177-143.025-139.444-143.025-139.444s1.829-12.053 3.977-21.029c0.122-0.594-69.257-2.179-126.11 0-29.867 1.143-65.813 6.674-65.813 6.674l164.632 117.379c0 0-59.55 10.728-119.741 12.861-65.92 2.347-133.41-3.992-143.040-6.43-6.065-1.539 42.621-1.417 98.149-6.43 38.872-3.505 90.011-12.861 90.011-12.861l-164.617-122.545c0 0 70.507-4.267 133.76-3.87 71.162 0.488 135.39 9.326 135.787 7.634 12.389-53.623 35.261-159.589 26.743-168.244-11.566-11.779-176.792 92.952-176.792 92.952s-153.691-93.44-174.888-93.44c-0.853 0-1.509 0.152-1.905 0.488-10.301 8.259 33.752 196.861 33.752 196.861z" />
<glyph unicode="&#xe963;" d="M636.927 675.182c0 0 74.331 7.512 129.691-44.83s38.050-139.307 38.050-139.307c-1.173-12.739-12.282-23.208-24.93-24.61 0.914-0.107 1.874-0.152 2.834-0.152h-5.714c0.975 0 1.935 0.046 2.88 0.152-12.282 1.402-20.48 11.901-18.697 24.64 0 0 13.638 52.709-19.581 100.389-33.204 47.665-104.61 39.436-104.61 39.436-12.709 0.015-23.482 9.31-24.808 21.775-0.091-0.853-0.137-1.722-0.137-2.606v5.211c0-0.869 0.046-1.737 0.137-2.606 1.326 12.495 11.947 22.43 24.884 22.507zM227.556 374.214c0 92.282 173.669 238.019 240.122 238.019 27.855 0 82.545-20.77 44.282-86.568-1.067-1.859 12.556 3.916 32.381 9.691 29.699 8.625 73.341 17.265 102.507 0.366 48.625-28.175 0-73.478 0-78.507s97.63-5.029 97.63-83.002c0-92.297-114.85-167.116-257.89-167.116-143.055 0-259.032 74.819-259.032 167.116zM645.201 593.643c0 0 34.85 9.524 65.051-17.646s17.859-72.122 17.859-72.122c-1.31-9.173-10.27-16.442-19.55-16.442h-1.646c-9.31 0-14.72 7.131-12.175 15.97 0 0 11.49 26.286-4.602 45.425-16.122 19.109-44.907 14.644-44.907 14.644-8.457-0.076-15.314 5.714-16.442 13.714-0.107-0.762-0.168-1.554-0.168-2.331v4.663c0-0.792 0.061-1.57 0.168-2.331 1.128 8.183 8.046 15.36 16.411 16.457zM463.091 473.43c-91.383-12.846-158.705-71.421-150.354-130.819 8.366-59.413 89.219-97.158 180.617-84.312 91.383 12.846 158.705 71.406 150.354 130.819-7.253 51.566-69.166 86.811-145.143 86.811-11.55 0-23.421-0.808-35.474-2.499zM362.077 337.369c-8.808 45.288 28.13 90.59 82.484 101.15s105.57-17.6 114.377-62.888c8.777-45.288-28.114-90.59-82.484-101.15-7.726-1.493-15.39-2.225-22.872-2.225-45.196 0-83.947 26.255-91.505 65.112zM461.521 374.214c0-9.234 7.467-16.716 16.701-16.716s16.716 7.482 16.716 16.716c0 9.234-7.482 16.701-16.716 16.701s-16.701-7.467-16.701-16.701zM418.504 364.812c-16.731-7.802-25.539-24.274-19.688-36.83 5.836-12.541 24.137-16.396 40.869-8.594 16.716 7.802 25.554 24.305 19.688 36.846-3.794 8.137-12.846 12.617-23.314 12.617-5.638 0-11.703-1.295-17.554-4.038z" />
<glyph unicode="&#xe964;" d="M322.149 321.864c-5.714 2.91 17.204 50.606 11.916 54.004-47.36 30.248-78.065 78.842-78.065 133.608 0 91.733 86.050 166.080 192.183 166.080 100.084 0 182.293-66.103 191.345-150.537 84.19-3.291 151.238-61.547 151.238-132.937 0-44.312-25.859-83.566-65.63-107.764-7.482-4.556 16.229-42.971 7.817-46.385-2.606-1.051-13.272 6.659-23.924 14.37-10.514 7.604-21.029 15.223-23.741 14.415-16.655-4.983-34.59-7.68-53.288-7.68-68.404 0-126.705 36.236-149.029 87.101-11.291-1.783-22.918-2.728-34.789-2.728-23.71 0-46.4 3.718-67.383 10.514-5.181 1.661-17.143-7.238-29.090-16.152-10.956-8.152-21.928-16.32-27.657-16.32-0.716 0-1.356 0.122-1.905 0.411zM289.417 508.957c0-41.92 23.101-82.255 59.2-106.667 1.89-1.295 11.383-5.653 10.758-11.855-1.371-13.608-5.44-22.933-5.44-22.933s11.124 12.785 19.413 18.956c3.688 2.743 10.499 0.686 12.404 0 19.17-6.872 40.259-10.682 62.43-10.682 8.853 0 17.554 0.61 25.996 1.768-0.61 4.785-0.93 9.63-0.93 14.537 0 66.103 57.448 120.914 132.77 131.307-8.579 66.773-75.977 118.75-157.836 118.75-87.68 0-158.766-59.627-158.766-133.181zM489.95 566.938c0 13.851 11.23 25.082 25.067 25.082 13.851 0 25.082-11.23 25.082-25.082 0-13.836-11.23-25.067-25.082-25.067-13.836 0-25.067 11.23-25.067 25.067zM356.267 566.938c0 13.851 11.23 25.082 25.067 25.082s25.067-11.23 25.067-25.082c0-13.836-11.23-25.067-25.067-25.067s-25.067 11.23-25.067 25.067zM657.067 441.605c0-9.219 7.482-16.716 16.716-16.716s16.716 7.497 16.716 16.716c0 9.234-7.482 16.716-16.716 16.716s-16.716-7.482-16.716-16.716zM556.815 441.605c0-9.219 7.467-16.716 16.701-16.716s16.701 7.497 16.701 16.716c0 9.234-7.467 16.716-16.701 16.716s-16.701-7.482-16.701-16.716z" />
<glyph unicode="&#xe965;" glyph-name="login_btn_back" d="M270.641 448l281.586-281.586c22.216-22.216 22.216-58.237 0-80.453s-58.237-22.216-80.453 0l-321.812 321.812c-22.216 22.216-22.216 58.237 0 80.453l321.812 321.812c22.216 22.216 58.237 22.216 80.453 0s22.216-58.237 0-80.453l-281.586-281.586z" />
<glyph unicode="&#xe966;" glyph-name="login_btn_password" horiz-adv-x="709" d="M198.996 711.255c0 82.434 66.813 149.247 149.247 149.247s149.247-66.813 149.247-149.247c0-8.121-1.528-40.648 49.978-40.648 31.513 0 48.020 13.549 49.52 40.648 0 137.357-111.388 248.745-248.745 248.745-137.407 0-248.745-111.338-248.745-248.745v-124.372c0 0 33.166 0 99.498 0 0 71.241 0 112.698 0 124.372zM596.988 586.883h-497.49c-54.973 0-99.498-44.575-99.498-99.498v-414.575c0-54.973 44.525-99.498 99.498-99.498h497.49c54.973 0 99.498 44.575 99.498 99.498v414.575c0 54.923-44.525 99.498-99.498 99.498zM397.992 244.178v-63.579c0-27.461-22.288-49.749-49.749-49.749s-49.749 22.288-49.749 49.749v63.529c-29.601 17.263-49.749 49.003-49.749 85.718 0 54.973 44.525 99.498 99.498 99.498s99.498-44.525 99.498-99.498c0-36.715-20.148-68.455-49.749-85.668z" />
<glyph unicode="&#xe967;" glyph-name="shenqing_icon_mail" d="M512 960c-282.778 0-512-229.222-512-512s229.222-512 512-512 512 229.222 512 512-229.222 512-512 512zM819.2 294.4c0-56.576-45.824-102.4-102.4-102.4h-409.6c-56.576 0-102.4 45.824-102.4 102.4v255.744l307.2-153.344 307.2 151.962v-254.362zM819.2 597.658l-307.2-149.658-306.586 153.6-0.614 2.048c1.126 55.603 46.541 100.352 102.4 100.352h409.6c56.576 0 102.4-45.824 102.4-102.4v-3.942z" />
<glyph unicode="&#xe968;" glyph-name="icon_back_top" d="M512 584.031l-325.835-325.835c-19.995-19.995-52.413-19.995-72.408 0s-19.995 52.413 0 72.408l362.039 362.039c19.995 19.995 52.413 19.995 72.408 0l362.039-362.039c19.995-19.995 19.995-52.413 0-72.408s-52.413-19.995-72.408 0l-325.835 325.835z" />
</font>
</defs>
</svg>
